<?xml version="1.0" encoding="UTF-8"?>
<svg id="Layer_1" data-name="Layer 1" xmlns="http://www.w3.org/2000/svg" viewBox="0 0 792 612">
  <defs>
    <style>
      .cls-1 {
        fill: #39b54a;
      }

      .cls-1, .cls-2, .cls-3, .cls-4, .cls-5, .cls-6, .cls-7 {
        stroke-width: 0px;
      }

      .cls-8 {
        letter-spacing: -.01em;
      }

      .cls-2 {
        fill: #ef4136;
      }

      .cls-9 {
        letter-spacing: 0em;
      }

      .cls-10 {
        fill: #be1e2d;
        font-family: Farmhand-Regular, Farmhand;
        font-size: 70.26px;
        stroke: #231f20;
        stroke-miterlimit: 10;
      }

      .cls-3 {
        fill: #fbb040;
      }

      .cls-4 {
        fill: #fff200;
      }

      .cls-5 {
        fill: #000;
      }

      .cls-6 {
        fill: #231f20;
      }

      .cls-7 {
        fill: #f9ed32;
      }

      .cls-11 {
        letter-spacing: 0em;
      }

      .cls-12 {
        letter-spacing: 0em;
      }
    </style>
  </defs>
  <path class="cls-5" d="M387.25,311.71c.26,2.76.48,5.03.69,7.3,11.58-.54,11.88-.3,15.6,11.07.59,1.82,1.45,3.54,2.35,5.71-2.87.65-5.6,1.27-8.38,1.9,8.15,13.58,4.64,24.6-9.46,32.29-26.28,14.34-54.85,23-82.56,33.81-14.03,5.47-28.27,10.39-42.44,15.52-13.83,5.01-25.55,1.59-36.47-7.97-3.81-3.33-9.48-5.67-14.55-6.22-17.12-1.87-27.37-12.63-27.25-29.98,0-.74-.09-1.48-.16-2.57-2.58-.25-5.01-.49-6.77-.67,0-5-.21-9.69.12-14.35.11-1.5,1.33-3.32,2.59-4.25,2.19-1.63,5.07-1.99,4.88-6.11-.05-1.08,4.99-2.41,8.99-4.21-2.68-1.4-4.44-2.51-6.34-3.26-10.17-4.04-12.61-8-12.75-18.86-.21-16.59,8.48-27.76,22.96-32.92,24.89-8.87,50.15-17.05,75.77-23.42,17.88-4.44,36.56-6.3,55-7.63,21.98-1.58,42.04,4.18,56.6,22.16,3.55,4.38,6.17,9.87,7.94,15.27,2.7,8.23.75,12.37-6.37,17.39ZM224.74,345.42c7.54,8.65,11.94,9.87,21.99,6.52,4.03-1.34,8.03-2.81,12.08-4.1,37.32-11.85,74.67-23.58,111.93-35.61,5.45-1.76,10.69-4.52,15.54-7.58,1.69-1.07,3.33-5.11,2.59-6.67-4.26-9.05-8.43-18.21-16.99-24.47-13.97-10.21-29.93-13.43-46.29-10.94-26.67,4.05-53.26,9.12-79.53,15.25-16.07,3.75-32,9.14-47.06,15.87-17.41,7.79-19.24,16.83-17.8,32.54.42,4.55,2.9,7.42,8.32,7.67,3.61.17,7.27,1.92,10.67,3.49,4.7,2.17,9.21,6.84,13.72,6.74,4.6-.1,6.04,2.31,8.58,4.3.4.32.9.51,1.46.83.26-1.26.49-2.35.79-3.85ZM247.07,400.74c-2.87-4.75-3.43-4.81-7.91-3.34-2.24.74-4.8,1.09-7.14.85-6.08-.61-13.01,1.39-17.41-5.14-.32-.47-1.45-.39-2.2-.57-7.2-1.7-7.79-2.83-5.07-9.89-5.53-6.09-10.42-8.06-16.99-6.83-.14,10.84,4.71,19.24,13.44,22.88,5.66,2.37,12.68-.47,17.74,5.02,1.78,1.93,5.68,1.76,7.77,3.55,10.5,8.95,21.55,11.71,34.88,6.2,14.97-6.19,30.53-10.94,45.61-16.89,24.76-9.78,49.35-19.97,73.98-30.09,7.56-3.11,12.02-8.6,12.24-17.3-.91,0-1.52-.16-1.99.02-17.99,6.94-35.87,14.17-53.99,20.74-6.27,2.27-9.37,6.7-12.38,11.95-1.02,1.78-3.27,3.56-5.24,3.97-9.29,1.94-19.65.92-26.01,10.29-.14.21-.7.13-1.49.24-2.55-5.4-7.01-4.27-11.68-3.09-4.85,1.23-9.76,2.39-14.72,3.03-3.72.48-7.55.09-11.33.09-.05-.64-.1-1.28-.16-1.92,2.06-1.09,4.13-2.18,6.19-3.27q-12.09,1.29-16.15,9.48ZM216.68,355.78c.48,8.67,5.24,14.47,14.48,17.73,14.88,5.26,30.08,4.28,45.25,1.79,13.85-2.28,27-6.6,38.51-14.98,8.03-5.85,11.11-14.04,11.09-23.77-5.34,9.47-13.59,15.53-23.27,19.24-9.51,3.64-19.31,7.27-29.3,8.75-19.53,2.9-39.74,7.36-56.77-8.76ZM270.82,386.21c.49.42.98.83,1.47,1.25,3.76-4.22,7.43-9.48,12.27-1.52.18.29,1.09.14,1.66.2,2.92.3,5.84.61,8.84.92,2.45-8.34,4.18-9.02,11.9-4.46.93.55,2.48,1.44,2.99,1.08,5.25-3.63,14.74.11,15.79-9.79-.25-1.86-.92-5.71-.15-6.03,7.75-3.17,5.97-9.45,5.41-15.67-2.54,6.31-4.12,13.42-13.07,13.34,1.47,2.06,2.7,3.79,3.94,5.53-.25.49-.5.98-.75,1.48-4.94-.8-9.89-1.59-14.43-2.32-.49,2.7-.81,4.46-1.12,6.23-1.75-.41-3.49-.83-5.24-1.24-1.05-.25-2.22-.91-3.13-.65-7.76,2.21-15.54,4.42-23.15,7.08-1.44.5-2.18,3.01-3.24,4.59ZM336.79,339.79c0,.47,0,.94-.01,1.42h21.85c.06.43.12.86.18,1.29-7.49.81-14.98,1.62-23.22,2.51,10.34,5.6,22.23,3.45,30.42-4.46,2.99-2.88,6.5-5.34,10.08-7.48,5.42-3.23,8.23-8.69,6.66-15.22-2.95,7.54-8.62,11.17-15.43,13.51-1.97.68-4.27,1.5-5.52,3.01-4.12,4.98-9.77,5.01-15.33,5.38-3.21.21-6.46.04-9.68.04ZM385.74,348.9c2.01-2.82,4.48-4.69,4.45-6.52-.13-8.46,1.17-10.17,10.56-10.16-4.75-1.98-.31-11.35-9.19-8.59.78,1.37,1.52,2.69,1.92,3.39-3.82,2.25-7.21,4.25-10.46,6.17,1.36.97,2.79,1.98,4.21,2.99.08.65.16,1.29.24,1.94-10.89.56-20.37,3.69-26.43,13.44,1.97.45,4.14.94,6.29,1.43,1.01-1.83,1.53-3.64,2.72-4.69,1.28-1.13,3.69-1.12,4.75-2.34,5.07-5.88,6.37-5.85,10.93,2.94ZM214.32,388.75c1.69.95,4.25,2.69,7.05,3.83,1.56.64,3.52.41,5.29.34,2.74-.1,5.46-.38,9.34-.68.89-1.13,2.35-4.11,4.74-5.7,2.25-1.5,6.81,1.29,7.85-5.64-6.09,1.68-11.62,2.71-16.76,4.73-11.29,4.42-13.61,2.97-13.4-9.24,0-.25-.4-.51-.9-1.1-1.59,1.19-3.19,2.39-4.8,3.6.53.12,1.06.25,1.59.37v9.49ZM200.76,351.46c-4.12,2.42-7.65,4.59-11.29,6.57-1.02.55-2.37.81-3.52.71-.94-.08-1.81-.91-2.71-1.4-.2,1.22-.63,2.45-.56,3.65.11,1.8.57,3.57.6,3.76,3.8,1.27,6.76,2.5,9.83,3.23,2.61.62,5.42,1.15,8.03.82,2.63-.33,5.13-1.76,7.67-2.71-.49-1.99-1.09-4.38-1.56-6.28-4.02,2.01-8.15,4.08-12.29,6.15-.58-.6-1.15-1.19-1.73-1.79,2.39-4.03,4.77-8.05,7.52-12.7ZM288.37,348.7c.19.6.38,1.21.57,1.81,6.36-1.15,13.36-.32,19.07-7.78-7.37,2.24-13.5,4.1-19.63,5.97Z"/>
  <path class="cls-3" d="M224.74,345.42c-.31,1.49-.53,2.59-.79,3.85-.56-.31-1.06-.51-1.46-.83-2.54-1.99-3.98-4.39-8.58-4.3-4.51.1-9.02-4.57-13.72-6.74-3.39-1.57-7.05-3.32-10.67-3.49-5.42-.26-7.9-3.12-8.32-7.67-1.43-15.71.4-24.75,17.8-32.54,15.06-6.74,30.99-12.12,47.06-15.87,26.27-6.13,52.86-11.2,79.53-15.25,16.36-2.49,32.32.73,46.29,10.94,8.57,6.26,12.73,15.42,16.99,24.47.73,1.56-.9,5.6-2.59,6.67-4.85,3.06-10.09,5.82-15.54,7.58-37.26,12.03-74.61,23.76-111.93,35.61-4.05,1.29-8.04,2.75-12.08,4.1-10.05,3.35-14.45,2.12-21.99-6.52ZM238.55,336.63c-4.13-11.5-9.77-22-19.27-29.56-4.94-3.93-11.16-6.79-17.26-8.6-6.36-1.89-12.15,1.53-15.13,6.95,10.86-5.42,14.81-5.6,23.59-.2,3.42,2.1,6.87,4.54,9.43,7.57,6.42,7.63,12.33,15.68,18.65,23.84ZM383.64,302.99c-.28-.76-.56-1.53-.84-2.29-20.45,7.59-40.9,15.19-61.35,22.78l.66,1.8c20.51-7.43,41.02-14.86,61.53-22.29ZM368.13,275.75c.25-.59.5-1.18.76-1.77-6.75-2.69-13.49-5.39-20.24-8.08l-.51,1.29c6.67,2.85,13.33,5.7,20,8.55Z"/>
  <path class="cls-3" d="M247.07,400.74q4.06-8.2,16.15-9.48c-2.06,1.09-4.13,2.18-6.19,3.27.05.64.1,1.28.16,1.92,3.78,0,7.61.39,11.33-.09,4.95-.64,9.86-1.79,14.72-3.03,4.67-1.19,9.14-2.31,11.68,3.09.79-.12,1.35-.04,1.49-.24,6.36-9.37,16.72-8.35,26.01-10.29,1.97-.41,4.22-2.19,5.24-3.97,3.01-5.25,6.11-9.68,12.38-11.95,18.12-6.57,36-13.8,53.99-20.74.47-.18,1.08-.02,1.99-.02-.22,8.7-4.68,14.19-12.24,17.3-24.62,10.12-49.22,20.32-73.98,30.09-15.08,5.95-30.64,10.7-45.61,16.89-13.33,5.51-24.38,2.75-34.88-6.2-2.09-1.78-5.99-1.62-7.77-3.55-5.07-5.49-12.08-2.66-17.74-5.02-8.73-3.65-13.57-12.05-13.44-22.88,6.56-1.23,11.46.74,16.99,6.83-2.72,7.05-2.14,8.19,5.07,9.89.75.18,1.88.1,2.2.57,4.4,6.53,11.33,4.52,17.41,5.14,2.34.24,4.9-.12,7.14-.85,4.48-1.47,5.03-1.42,7.91,3.34ZM251.33,396.71c-1.43,6.16,2.5,13.3-4.95,17.26,7.04-3.21,9.14-10.75,4.95-17.26Z"/>
  <path class="cls-2" d="M216.68,355.78c17.02,16.12,37.24,11.67,56.77,8.76,9.99-1.48,19.79-5.11,29.3-8.75,9.68-3.71,17.93-9.77,23.27-19.24.02,9.73-3.07,17.92-11.09,23.77-11.51,8.38-24.66,12.7-38.51,14.98-15.17,2.49-30.36,3.47-45.25-1.79-9.24-3.26-14-9.06-14.48-17.73Z"/>
  <path class="cls-1" d="M270.82,386.21c1.06-1.58,1.8-4.09,3.24-4.59,7.61-2.66,15.39-4.87,23.15-7.08.91-.26,2.08.41,3.13.65,1.75.41,3.49.83,5.24,1.24.32-1.76.64-3.52,1.12-6.23,4.54.73,9.49,1.53,14.43,2.32.25-.49.5-.98.75-1.48-1.24-1.73-2.47-3.47-3.94-5.53,8.94.08,10.52-7.03,13.07-13.34.56,6.22,2.34,12.51-5.41,15.67-.78.32-.1,4.17.15,6.03-1.05,9.9-10.54,6.16-15.79,9.79-.51.35-2.06-.53-2.99-1.08-7.72-4.56-9.45-3.88-11.9,4.46-3-.31-5.92-.62-8.84-.92-.57-.06-1.48.1-1.66-.2-4.84-7.96-8.51-2.7-12.27,1.52-.49-.42-.98-.83-1.47-1.25Z"/>
  <path class="cls-2" d="M336.79,339.79c3.23,0,6.47.17,9.68-.04,5.56-.37,11.21-.4,15.33-5.38,1.25-1.51,3.55-2.33,5.52-3.01,6.81-2.34,12.48-5.97,15.43-13.51,1.57,6.53-1.25,11.99-6.66,15.22-3.58,2.13-7.09,4.59-10.08,7.48-8.2,7.9-20.08,10.05-30.42,4.46,8.25-.89,15.73-1.7,23.22-2.51-.06-.43-.12-.86-.18-1.29h-21.85c0-.47,0-.94.01-1.42Z"/>
  <path class="cls-1" d="M385.74,348.9c-4.56-8.79-5.85-8.82-10.93-2.94-1.06,1.23-3.47,1.21-4.75,2.34-1.19,1.05-1.71,2.86-2.72,4.69-2.16-.49-4.32-.98-6.29-1.43,6.06-9.76,15.54-12.89,26.43-13.44-.08-.65-.16-1.29-.24-1.94-1.43-1.01-2.85-2.02-4.21-2.99,3.25-1.91,6.64-3.92,10.46-6.17-.39-.7-1.14-2.01-1.92-3.39,8.88-2.76,4.44,6.61,9.19,8.59-9.39,0-10.69,1.7-10.56,10.16.03,1.83-2.44,3.7-4.45,6.52Z"/>
  <path class="cls-1" d="M214.32,388.75v-9.49c-.53-.12-1.06-.25-1.59-.37,1.61-1.2,3.21-2.41,4.8-3.6.49.59.9.84.9,1.1-.22,12.21,2.11,13.66,13.4,9.24,5.14-2.01,10.67-3.05,16.76-4.73-1.03,6.93-5.6,4.14-7.85,5.64-2.39,1.59-3.85,4.58-4.74,5.7-3.87.29-6.6.58-9.34.68-1.77.06-3.74.29-5.29-.34-2.8-1.14-5.36-2.88-7.05-3.83Z"/>
  <path class="cls-1" d="M200.76,351.46c-2.75,4.64-5.14,8.67-7.52,12.7.58.6,1.15,1.19,1.73,1.79,4.13-2.07,8.27-4.14,12.29-6.15.47,1.9,1.06,4.3,1.56,6.28-2.54.94-5.03,2.38-7.67,2.71-2.61.33-5.42-.2-8.03-.82-3.08-.73-6.04-1.95-9.83-3.23-.03-.19-.49-1.96-.6-3.76-.07-1.2.35-2.43.56-3.65.9.5,1.77,1.32,2.71,1.4,1.15.1,2.51-.15,3.52-.71,3.64-1.98,7.17-4.15,11.29-6.57Z"/>
  <path class="cls-7" d="M270.04,353.63c11.85-3.4,23.7-6.8,37.96-10.89-11.03,13.61-24.57,12.09-36.86,14.2-.37-1.1-.73-2.21-1.1-3.31Z"/>
  <path class="cls-5" d="M238.55,336.63c-6.32-8.15-12.23-16.21-18.65-23.84-2.55-3.03-6.01-5.47-9.43-7.57-8.78-5.4-12.73-5.23-23.59.2,2.99-5.42,8.77-8.84,15.13-6.95,6.1,1.81,12.32,4.67,17.26,8.6,9.5,7.56,15.14,18.06,19.27,29.56Z"/>
  <path class="cls-5" d="M383.64,302.99c-20.51,7.43-41.02,14.86-61.53,22.29l-.66-1.8c20.45-7.59,40.9-15.19,61.35-22.78.28.76.56,1.53.84,2.29Z"/>
  <path class="cls-5" d="M368.13,275.75c-6.67-2.85-13.33-5.7-20-8.55l.51-1.29c6.75,2.69,13.49,5.39,20.24,8.08-.25.59-.5,1.18-.76,1.77Z"/>
  <path class="cls-5" d="M251.33,396.71c4.19,6.5,2.09,14.04-4.95,17.26,7.45-3.96,3.52-11.1,4.95-17.26Z"/>
  <g>
    <path class="cls-4" d="M243.02,281.78c-12.74-19.91-24.33-40.54-34.71-61.77,19.98,11.15,37.71,26.3,51.83,44.3-.54-26.55-.26-53.12.82-79.66,9.76,21.73,17.43,44.32,25.08,66.88,13.41-19.82,27.1-39.95,45.73-54.96-12.64,24.14-19.77,51.14-20.69,78.37-22.94,3.57-45.89,7.06-68.85,10.48"/>
    <path class="cls-6" d="M245.18,280.52c-9.91-15.5-19.14-31.44-27.64-47.75-2.42-4.64-4.77-9.32-7.07-14.02l-3.42,3.42c15.42,8.63,29.45,19.6,41.53,32.5,3.43,3.66,6.69,7.47,9.79,11.41,1.38,1.75,4.31.25,4.27-1.77-.41-20.66-.34-41.33.22-61.99.16-5.89.36-11.78.6-17.67l-4.66,1.26c7.52,16.77,13.78,34.06,19.76,51.43,1.7,4.95,3.39,9.9,5.07,14.85.71,2.09,3.34,2.41,4.57.6,10.36-15.31,20.8-30.73,33.8-43.95,3.65-3.71,7.49-7.23,11.54-10.5l-3.93-3.03c-9.99,19.13-16.6,39.92-19.47,61.31-.82,6.08-1.34,12.19-1.56,18.32l1.84-2.41c-17.86,2.78-35.72,5.51-53.6,8.2-5.08.76-10.17,1.53-15.25,2.28-1.34.2-2.07,1.89-1.75,3.08.39,1.43,1.73,1.95,3.08,1.75,17.88-2.66,35.75-5.37,53.61-8.12,5.08-.78,10.16-1.57,15.24-2.36,1.1-.17,1.8-1.4,1.84-2.41.73-20.93,5.16-41.66,12.95-61.11,2.19-5.46,4.68-10.79,7.4-16.01,1.37-2.62-1.76-4.78-3.93-3.03-14.69,11.88-26.37,26.92-37.13,42.33-3.04,4.35-6.02,8.74-8.99,13.14l4.57.6c-6-17.68-12.01-35.37-19.03-52.67-2.02-4.97-4.11-9.91-6.31-14.8-1.08-2.41-4.57-1-4.66,1.26-.84,20.65-1.19,41.32-1.05,61.98.04,5.89.12,11.78.24,17.68l4.27-1.77c-11.14-14.16-24.47-26.54-39.37-36.68-4.2-2.86-8.53-5.53-12.97-8.01-2.28-1.28-4.49,1.23-3.42,3.42,8.09,16.52,16.9,32.69,26.42,48.44,2.71,4.48,5.47,8.92,8.29,13.33,1.73,2.7,6.06.2,4.32-2.52h0Z"/>
  </g>
  <path class="cls-7" d="M367.2,322.53c-7.84,2.19-15.68,4.39-25.11,7.03,10.91,3.83,18-1.71,25.64-4.79-.18-.75-.35-1.49-.53-2.24Z"/>
  <g>
    <path class="cls-2" d="M333.9,362.64c2.4-.5,5.01.57,6.39,2.08s1.78,3.36,2.08,5.15c.99,5.9,1.19,11.91,3.35,17.64,2.16,5.74,6.64,11.35,13.93,14.11,7.29,2.76,17.63,1.71,21.97-3.34.76-.88,1.32-1.86,1.47-2.9.41-2.85-2.33-5.39-4.86-7.6-7.01-6.14-13.77-12.68-16.91-20.3-1.14-2.78-1.81-5.7-3.74-8.24s-5.58-4.69-9.58-4.43"/>
    <path class="cls-6" d="M334.24,363.85c2.25-.39,4.69.7,5.83,2.69,1.23,2.14,1.33,5.03,1.64,7.42.66,5.06,1.23,10.2,3.23,14.95,3.25,7.72,10.2,13.59,18.52,15.03,3.94.68,8.11.58,11.96-.57,3.48-1.03,7.47-3.22,8.68-6.9,1.53-4.64-3.54-8.27-6.49-10.9-3.72-3.31-7.36-6.77-10.43-10.7-1.64-2.1-3.09-4.36-4.23-6.76s-1.77-4.98-2.97-7.35c-2.27-4.48-6.92-7.43-11.99-7.2-1.6.07-1.61,2.57,0,2.5,4.54-.2,8.24,2.5,10.1,6.52.94,2.03,1.54,4.2,2.45,6.25s1.96,3.81,3.19,5.56c2.64,3.77,5.82,7.12,9.17,10.26,1.76,1.66,3.6,3.23,5.39,4.85,1.44,1.31,3.49,3.06,3.58,5.17.08,1.86-1.65,3.49-3.08,4.45s-3.13,1.63-4.84,2.07c-3.68.93-7.67.91-11.36.03-8.12-1.94-14.09-8.38-16.4-16.25-1.56-5.29-1.69-10.81-2.75-16.19-.46-2.32-1.43-4.48-3.4-5.9s-4.21-1.81-6.47-1.42c-1.58.27-.91,2.68.66,2.41h0Z"/>
  </g>
  <text class="cls-10" transform="translate(426.48 297.94)"><tspan x="0" y="0">Su</tspan><tspan class="cls-9" x="50.65" y="0">p</tspan><tspan x="76.93" y="0">reme</tspan><tspan class="cls-11" x="0" y="84.31">S</tspan><tspan x="23.54" y="84.31">an</tspan><tspan class="cls-12" x="74.89" y="84.31">d</tspan><tspan x="103.27" y="84.31">w</tspan><tspan class="cls-8" x="138.89" y="84.31">i</tspan><tspan x="155.26" y="84.31">ch</tspan></text>
</svg>