<?xml version="1.0" encoding="UTF-8"?>
<svg id="Layer_1" data-name="Layer 1" xmlns="http://www.w3.org/2000/svg" viewBox="0 0 840.72 212.37">
  <defs>
    <style>
      .cls-1 {
        fill: #be1e2d;
      }

      .cls-1, .cls-2 {
        font-family: Farmhand-Regular, Farmhand;
        font-size: 118.58px;
        isolation: isolate;
        stroke: #fff;
        stroke-miterlimit: 10;
      }

      .cls-2 {
        fill: none;
      }
    </style>
  </defs>
  <text class="cls-1" transform="translate(58.33 152.99)"><tspan x="0" y="0">Su</tspan></text>
  <text class="cls-2" transform="translate(58.33 152.99)"><tspan x="0" y="0">Su</tspan></text>
  <text class="cls-1" transform="translate(143.81 152.99)"><tspan x="0" y="0">p</tspan></text>
  <text class="cls-2" transform="translate(143.81 152.99)"><tspan x="0" y="0">p</tspan></text>
  <text class="cls-1" transform="translate(188.17 152.99)"><tspan x="0" y="0">reme</tspan></text>
  <text class="cls-2" transform="translate(188.17 152.99)"><tspan x="0" y="0">reme</tspan></text>
  <text class="cls-1" transform="translate(415.55 153.59)"><tspan x="0" y="0">S</tspan></text>
  <text class="cls-2" transform="translate(415.55 153.59)"><tspan x="0" y="0">S</tspan></text>
  <text class="cls-1" transform="translate(455.28 153.59)"><tspan x="0" y="0">an</tspan></text>
  <text class="cls-2" transform="translate(455.28 153.59)"><tspan x="0" y="0">an</tspan></text>
  <text class="cls-1" transform="translate(541.95 153.59)"><tspan x="0" y="0">d</tspan></text>
  <text class="cls-2" transform="translate(541.95 153.59)"><tspan x="0" y="0">d</tspan></text>
  <text class="cls-1" transform="translate(589.85 153.59)"><tspan x="0" y="0">w</tspan></text>
  <text class="cls-2" transform="translate(589.85 153.59)"><tspan x="0" y="0">w</tspan></text>
  <text class="cls-1" transform="translate(649.96 153.59)"><tspan x="0" y="0">i</tspan></text>
  <text class="cls-2" transform="translate(649.96 153.59)"><tspan x="0" y="0">i</tspan></text>
  <text class="cls-1" transform="translate(677.59 153.59)"><tspan x="0" y="0">ch</tspan></text>
  <text class="cls-2" transform="translate(677.59 153.59)"><tspan x="0" y="0">ch</tspan></text>
</svg>