<?xml version="1.0" encoding="UTF-8"?>
<svg id="Layer_1" data-name="Layer 1" xmlns="http://www.w3.org/2000/svg" viewBox="0 0 840.72 212.37">
  <defs>
    <style>
      .cls-1 {
        fill: none;
      }

      .cls-1, .cls-2 {
        stroke: #fff;
        stroke-miterlimit: 10;
      }

      .cls-2 {
        fill: #be1e2d;
      }

      .cls-3 {
        isolation: isolate;
      }
    </style>
  </defs>
  <g class="cls-3">
    <path class="cls-2" d="M73.27,152.75c-2.02-.83-3.44-2.96-4.62-4.98-.12-.24-.71-.12-.83.12l-.24.59c-.47.95-.95,2.02-1.78,2.85-.95,1.42-.47,2.37-2.13,2.02-.71-.24-1.66-.59-1.42-1.3.59-2.13.36-5.93.36-8.06,0-1.42-.12-2.61.12-3.91.24-1.3,0-2.85.24-4.15.12-.47.24-.95-.12-1.54v-.24c.83-3.2.24-6.4.47-9.6.12-.83.59-1.42,1.42-1.54h1.3c1.19,0,1.78-.12,1.9.95,0,1.42.12,3.56.24,4.98,0,1.9,1.07,4.39,1.19,6.4,0,2.13,1.07,3.91,1.54,6.05.36,1.66,1.42,2.37,1.78,4.03,1.19,1.42,1.54,2.85,3.2,3.79,1.19.59,2.73,1.07,4.15.83,1.3-.24,2.49-.59,3.56-1.42,2.02-1.78,3.44-2.96,4.27-5.57.47-1.9.47-6.64,0-8.54-1.07-3.68-2.85-7.71-4.74-11.03-1.42-2.37-2.49-4.86-4.27-7-.47-2.02-2.13-3.44-2.85-5.22-.83-1.78-2.02-3.2-1.42-4.15-1.3,0-2.85-2.61-3.08-3.79.71-.47-1.42-2.96-2.13-4.39-.59-1.19-.95-3.08-2.25-3.79.47-.24-1.9-4.39-2.85-6.76-.59-1.07-.71-2.25-1.07-3.44-.71-2.13-.83-4.51-1.78-6.64-.12-1.9-.24-3.91-.12-5.93,0-2.13.71-4.98,1.42-7.23.12-3.08.71-2.85,2.13-5.45.36-.83,1.3-1.07,1.78-1.78,1.54-2.61,3.56-3.91,6.4-5.34,1.66-.71,3.2-1.19,5.1-1.19,2.61-.12,5.1.71,7.47,1.9,1.19.47,1.9,1.54,2.49,2.61.36.59.59.59,1.07-.12.59-1.07,1.54-2.02,1.9-3.2,0-.24.12-.36.24-.59.36-.59,1.07-.95,1.66-.83.83.24,1.42.83,1.42,1.66,0,.36.12.83,0,1.3-.71,2.49-.59,4.98-.59,7.47,0,1.66,0,3.32-.36,4.98-.36,1.78-.24,3.68-.12,5.34,0,1.19-.36,4.62-.59,5.69-.12.36-.36.59-.71.59-.95.12-1.78.12-2.73.12-.47,0-.83-.12-.83-.71-.12-1.19-.59-4.86-.59-6.17-.12-1.3-.24-2.96-.95-4.27-.12-.24-.12-.71-.12-1.07.36-3.56-1.07-4.98-2.61-7.83-1.19-2.61-3.56-3.44-6.28-3.2h-.36c-1.54,1.07-3.44,1.19-4.74,2.61-1.54,1.54-2.49,3.32-3.08,5.34-.47,1.9,0,2.02,0,3.32-.12,3.68-.12,2.73.83,5.45.71,2.13,1.07,3.2,2.25,5.1,1.19,2.25,1.78,2.85,3.08,4.98l1.07,1.78c.47.71-.24,1.42.71,1.66.83.24,1.42,2.96,2.37,3.79.59.59.83,1.66,1.3,2.49,1.07,1.9,2.02,3.91,3.32,5.69,1.42,2.13,2.85,4.15,3.79,6.52.47,1.07.59,2.37,1.66,3.2,1.54,3.44,2.49,4.74,3.32,8.54.36,1.78.36,3.68,1.07,5.34.24.47.24,1.07.24,1.66,0,1.07.71,3.44.83,4.51.24,2.49.12,7.83,0,10.32-.12,1.07-1.3,7-1.9,7.94-1.07,2.02-2.37,2.96-3.68,4.98l-.71.71c-1.9,1.66-5.81,2.73-8.77,2.96-.47.12-1.07.12-1.66,0-2.02-.36-3.56-.47-5.57-1.19Z"/>
    <path class="cls-2" d="M116.55,152.4c-2.02-.36-3.56-1.66-4.98-3.08-2.49-2.37-4.51-5.22-5.34-8.54-.12-.59-.36-1.07-.36-1.66-.12-2.02-.95-4.03-.71-6.17,0-.47-.12-.95-.24-1.3-.36-.59-.24-1.19-.12-1.9.47-2.61.36-5.22.12-7.94,0-.71-.36-1.3,0-2.13.24-.47.24-1.19.12-1.66-.71-1.42-.47-2.96-.47-4.51v-9.96c0-2.13-.24-4.27.47-6.28.12-.36.12-.83.12-1.3,0-6.52-.12-12.81-.12-19.33v-1.66c0-.47-.59-1.07-1.07-1.07-1.07,0-2.25,0-3.32-.12-.59,0-1.3-.59-1.3-1.19-.12-.71-.12-1.3-.12-2.02,0-.36.36-.59.59-.71l1.54-.12c2.02.36,7.11.36,10.55-.12,1.3.83,5.69.24,8.77.24h1.3c.59.12,1.3,1.19,1.07,1.54-.36.59.24,1.19,0,1.9,0,.24-1.19.47-1.42.47-.71.12-1.3,0-2.02,0-.83,0-1.07.36-1.07,1.3v.36c0,1.3-.12,2.61-.12,3.91,0,1.19.12,2.49,0,3.44-.12,1.3.59,2.61.12,3.91.95,5.1-.12,10.32.12,15.42,0,.71-.24,1.3-.24,2.02-.12.36-.24.71-.24.95.95,3.32.24,6.76.47,10.2.12,2.73.12,5.57.12,8.3,0,.47,0,.95.12,1.3.59,1.66.36,3.44.47,5.22.12,2.37-.24,4.86.59,7.23.12.59,0,1.3,0,2.02-.24,2.85.24,4.62,1.66,6.88.47.83,3.56,4.74,9.01,1.54.47-.12.95-.47,1.07-.83.36-1.54,1.42-2.73,2.02-4.39.59-2.02.59-3.91.47-5.93-.12-2.61-.47-5.22.24-7.83.24-.95.24-2.02,0-2.96-.12-.95-.12-1.9-.36-2.73.59-.95-.24-1.66-.12-2.61,0-.95-.12-1.9-.12-2.96v-8.3c0-1.66.36-3.44,0-5.22-.47-2.13.12-4.39.12-6.64,0-6.52-.59-13.28,0-19.8v-2.37c0-.71-.12-.95-.95-1.07-1.07,0-3.32.59-3.44-.59l-.12-2.37c0-.36.24-.83.36-.83.83-.12,3.08-.71,3.91-.47,2.96.59,5.93.59,8.89-.12.47-.12,0,.24.24.59.36.59.36,1.3.36,1.9,0,1.19.12,1.9-.95,2.02h-2.96c-.95,0-1.3.36-1.3,1.19,0,3.68.12,7.47.12,11.26,0,2.49-.12,5.1,0,7.59,0,2.73-.71,5.57,0,8.3.36.83.24,1.9.24,2.96,0,1.66-.24,3.32-.47,4.98-.24,1.54.95,2.96.36,4.51.71,3.2.24,6.52.36,9.84.12,3.79-.12,7.71,0,11.62,0,3.2-.71,6.28-1.42,9.37-.24.95-.71,1.9-1.42,2.61-.47.36-.83,1.07-1.19,1.54-1.07,1.3-1.9,2.73-3.56,3.2-3.91,2.25-11.26-.12-14.47-.83Z"/>
  </g>
  <g class="cls-3">
    <path class="cls-1" d="M73.27,152.75c-2.02-.83-3.44-2.96-4.62-4.98-.12-.24-.71-.12-.83.12l-.24.59c-.47.95-.95,2.02-1.78,2.85-.95,1.42-.47,2.37-2.13,2.02-.71-.24-1.66-.59-1.42-1.3.59-2.13.36-5.93.36-8.06,0-1.42-.12-2.61.12-3.91.24-1.3,0-2.85.24-4.15.12-.47.24-.95-.12-1.54v-.24c.83-3.2.24-6.4.47-9.6.12-.83.59-1.42,1.42-1.54h1.3c1.19,0,1.78-.12,1.9.95,0,1.42.12,3.56.24,4.98,0,1.9,1.07,4.39,1.19,6.4,0,2.13,1.07,3.91,1.54,6.05.36,1.66,1.42,2.37,1.78,4.03,1.19,1.42,1.54,2.85,3.2,3.79,1.19.59,2.73,1.07,4.15.83,1.3-.24,2.49-.59,3.56-1.42,2.02-1.78,3.44-2.96,4.27-5.57.47-1.9.47-6.64,0-8.54-1.07-3.68-2.85-7.71-4.74-11.03-1.42-2.37-2.49-4.86-4.27-7-.47-2.02-2.13-3.44-2.85-5.22-.83-1.78-2.02-3.2-1.42-4.15-1.3,0-2.85-2.61-3.08-3.79.71-.47-1.42-2.96-2.13-4.39-.59-1.19-.95-3.08-2.25-3.79.47-.24-1.9-4.39-2.85-6.76-.59-1.07-.71-2.25-1.07-3.44-.71-2.13-.83-4.51-1.78-6.64-.12-1.9-.24-3.91-.12-5.93,0-2.13.71-4.98,1.42-7.23.12-3.08.71-2.85,2.13-5.45.36-.83,1.3-1.07,1.78-1.78,1.54-2.61,3.56-3.91,6.4-5.34,1.66-.71,3.2-1.19,5.1-1.19,2.61-.12,5.1.71,7.47,1.9,1.19.47,1.9,1.54,2.49,2.61.36.59.59.59,1.07-.12.59-1.07,1.54-2.02,1.9-3.2,0-.24.12-.36.24-.59.36-.59,1.07-.95,1.66-.83.83.24,1.42.83,1.42,1.66,0,.36.12.83,0,1.3-.71,2.49-.59,4.98-.59,7.47,0,1.66,0,3.32-.36,4.98-.36,1.78-.24,3.68-.12,5.34,0,1.19-.36,4.62-.59,5.69-.12.36-.36.59-.71.59-.95.12-1.78.12-2.73.12-.47,0-.83-.12-.83-.71-.12-1.19-.59-4.86-.59-6.17-.12-1.3-.24-2.96-.95-4.27-.12-.24-.12-.71-.12-1.07.36-3.56-1.07-4.98-2.61-7.83-1.19-2.61-3.56-3.44-6.28-3.2h-.36c-1.54,1.07-3.44,1.19-4.74,2.61-1.54,1.54-2.49,3.32-3.08,5.34-.47,1.9,0,2.02,0,3.32-.12,3.68-.12,2.73.83,5.45.71,2.13,1.07,3.2,2.25,5.1,1.19,2.25,1.78,2.85,3.08,4.98l1.07,1.78c.47.71-.24,1.42.71,1.66.83.24,1.42,2.96,2.37,3.79.59.59.83,1.66,1.3,2.49,1.07,1.9,2.02,3.91,3.32,5.69,1.42,2.13,2.85,4.15,3.79,6.52.47,1.07.59,2.37,1.66,3.2,1.54,3.44,2.49,4.74,3.32,8.54.36,1.78.36,3.68,1.07,5.34.24.47.24,1.07.24,1.66,0,1.07.71,3.44.83,4.51.24,2.49.12,7.83,0,10.32-.12,1.07-1.3,7-1.9,7.94-1.07,2.02-2.37,2.96-3.68,4.98l-.71.71c-1.9,1.66-5.81,2.73-8.77,2.96-.47.12-1.07.12-1.66,0-2.02-.36-3.56-.47-5.57-1.19Z"/>
    <path class="cls-1" d="M116.55,152.4c-2.02-.36-3.56-1.66-4.98-3.08-2.49-2.37-4.51-5.22-5.34-8.54-.12-.59-.36-1.07-.36-1.66-.12-2.02-.95-4.03-.71-6.17,0-.47-.12-.95-.24-1.3-.36-.59-.24-1.19-.12-1.9.47-2.61.36-5.22.12-7.94,0-.71-.36-1.3,0-2.13.24-.47.24-1.19.12-1.66-.71-1.42-.47-2.96-.47-4.51v-9.96c0-2.13-.24-4.27.47-6.28.12-.36.12-.83.12-1.3,0-6.52-.12-12.81-.12-19.33v-1.66c0-.47-.59-1.07-1.07-1.07-1.07,0-2.25,0-3.32-.12-.59,0-1.3-.59-1.3-1.19-.12-.71-.12-1.3-.12-2.02,0-.36.36-.59.59-.71l1.54-.12c2.02.36,7.11.36,10.55-.12,1.3.83,5.69.24,8.77.24h1.3c.59.12,1.3,1.19,1.07,1.54-.36.59.24,1.19,0,1.9,0,.24-1.19.47-1.42.47-.71.12-1.3,0-2.02,0-.83,0-1.07.36-1.07,1.3v.36c0,1.3-.12,2.61-.12,3.91,0,1.19.12,2.49,0,3.44-.12,1.3.59,2.61.12,3.91.95,5.1-.12,10.32.12,15.42,0,.71-.24,1.3-.24,2.02-.12.36-.24.71-.24.95.95,3.32.24,6.76.47,10.2.12,2.73.12,5.57.12,8.3,0,.47,0,.95.12,1.3.59,1.66.36,3.44.47,5.22.12,2.37-.24,4.86.59,7.23.12.59,0,1.3,0,2.02-.24,2.85.24,4.62,1.66,6.88.47.83,3.56,4.74,9.01,1.54.47-.12.95-.47,1.07-.83.36-1.54,1.42-2.73,2.02-4.39.59-2.02.59-3.91.47-5.93-.12-2.61-.47-5.22.24-7.83.24-.95.24-2.02,0-2.96-.12-.95-.12-1.9-.36-2.73.59-.95-.24-1.66-.12-2.61,0-.95-.12-1.9-.12-2.96v-8.3c0-1.66.36-3.44,0-5.22-.47-2.13.12-4.39.12-6.64,0-6.52-.59-13.28,0-19.8v-2.37c0-.71-.12-.95-.95-1.07-1.07,0-3.32.59-3.44-.59l-.12-2.37c0-.36.24-.83.36-.83.83-.12,3.08-.71,3.91-.47,2.96.59,5.93.59,8.89-.12.47-.12,0,.24.24.59.36.59.36,1.3.36,1.9,0,1.19.12,1.9-.95,2.02h-2.96c-.95,0-1.3.36-1.3,1.19,0,3.68.12,7.47.12,11.26,0,2.49-.12,5.1,0,7.59,0,2.73-.71,5.57,0,8.3.36.83.24,1.9.24,2.96,0,1.66-.24,3.32-.47,4.98-.24,1.54.95,2.96.36,4.51.71,3.2.24,6.52.36,9.84.12,3.79-.12,7.71,0,11.62,0,3.2-.71,6.28-1.42,9.37-.24.95-.71,1.9-1.42,2.61-.47.36-.83,1.07-1.19,1.54-1.07,1.3-1.9,2.73-3.56,3.2-3.91,2.25-11.26-.12-14.47-.83Z"/>
  </g>
  <g class="cls-3">
    <path class="cls-2" d="M155.31,152.99c-1.07-.36-2.25-.24-3.32-.24h-3.68c-.59,0-2.13.24-2.49-.36-.47-1.07-.47-2.13,0-3.2.12-.24.47-.47.83-.47h3.91c.71-.12.95-.36,1.07-1.07.12-1.66-.36-3.32.47-4.86-.36-.83-.59-1.66-.12-2.49-.71-.71.24-1.42-.12-2.13-.36-.71.24-1.3.24-1.9,0-1.9.24-3.91-.24-5.93-.36-1.07-.24-2.37-.12-3.56,0-.59.47-.95.36-1.54-.36-1.3-.36-2.73-.12-4.03-.71-3.56-.36-7.23-.12-10.79,0-.83-.12-1.78-.24-2.61-.12-1.54.12-3.08-.47-4.51-.59-1.54.71-2.96.36-4.51-.12-.47,0-.95,0-1.42q-.71-4.39,0-8.42c0-.36.12-.59.12-.95-.12-4.27-.12-8.42-.12-12.57,0-.83-.24-1.07-.95-1.07-.83,0-2.37,0-3.32.12-1.19.12-1.66,0-2.02-.95-.12-.47-.24-1.07-.24-1.54,0-.59.59-1.42,1.07-1.54.36-.12.71-.12,1.07-.12,1.07-.12,2.85-.36,3.79-.24.95.24,1.78.36,2.61,0,.83-.36,1.66-.47,2.61-.12.71.36,1.42.36,2.13,0,.47-.24.95.12,1.3.12.95-.24,1.9.36,2.73-.12.36-.24.71-.24.95-.12,1.66.59,3.32.36,4.98.59,2.96.47,9.01.95,10.91,3.56,2.13,2.13,4.03,2.73,5.93,6.76.36,2.13,2.25,7.59,2.13,9.72,0,1.54.24,2.96-.12,4.39-.59,2.96-1.42,8.54-3.56,11.38-1.07,3.2-5.1,4.62-7.71,6.64-1.78,1.3-6.76,1.78-9.01,2.02-.47,0-.83,0-1.3.12-.36,0-.59.24-.59.59-.12.47-.12,1.07-.12,1.66,0,1.3.59,2.49.24,3.79.47,1.19-.24,2.37-.24,3.56.12,3.08,0,6.17,0,9.25,0,3.91-.36,7.71,0,11.62.12.83,0,1.54,0,2.37,0,.47.36.83.83.83.71,0,1.42.12,2.02-.12.71-.24,1.19-.12,1.9,0,.83.24,1.9-.24,2.37.59s-.36,1.66,0,2.61c.12.24-.47.83-.83.83-1.19.12-2.25.12-3.32.12-1.9.12-3.79-.24-5.57.59-2.37-.24-4.62.36-6.88-.36ZM166.7,110.9c1.19.24,2.25-.36,3.32-.71,1.07-.36,2.13-1.07,2.85-2.02,1.66-2.61,2.02-5.57,2.49-8.54.24-1.19,0-2.61.47-3.56.71-1.54-.36-2.61-.24-3.91.12-.47,0-.83,0-1.3.12-.59.36-1.07.36-1.66-.12-.59-.36-1.19-.47-1.9-.36-3.68-1.3-6.88-2.73-10.2-.71-1.78-2.13-2.73-3.91-3.2-1.19-.36-2.37-.47-3.56-.59-.12,0-.36.24-.36.36-.12,1.54-.12,2.96-.12,4.39v3.91c-.12,1.3.12,2.73-.24,3.91-.36,1.3.12,2.49,0,3.79-.12,1.19.12,2.25-.24,3.44-.24.95-.24,2.02.12,2.96.47,1.3.24,2.61.24,3.91,0,.24-.24.59-.12.95.47,2.61.36,5.22.24,7.83,0,.71,0,1.3.12,2.02,0,.24,0,.71.59.47.36-.24.83-.24,1.19-.36Z"/>
  </g>
  <g class="cls-3">
    <path class="cls-1" d="M155.31,152.99c-1.07-.36-2.25-.24-3.32-.24h-3.68c-.59,0-2.13.24-2.49-.36-.47-1.07-.47-2.13,0-3.2.12-.24.47-.47.83-.47h3.91c.71-.12.95-.36,1.07-1.07.12-1.66-.36-3.32.47-4.86-.36-.83-.59-1.66-.12-2.49-.71-.71.24-1.42-.12-2.13-.36-.71.24-1.3.24-1.9,0-1.9.24-3.91-.24-5.93-.36-1.07-.24-2.37-.12-3.56,0-.59.47-.95.36-1.54-.36-1.3-.36-2.73-.12-4.03-.71-3.56-.36-7.23-.12-10.79,0-.83-.12-1.78-.24-2.61-.12-1.54.12-3.08-.47-4.51-.59-1.54.71-2.96.36-4.51-.12-.47,0-.95,0-1.42q-.71-4.39,0-8.42c0-.36.12-.59.12-.95-.12-4.27-.12-8.42-.12-12.57,0-.83-.24-1.07-.95-1.07-.83,0-2.37,0-3.32.12-1.19.12-1.66,0-2.02-.95-.12-.47-.24-1.07-.24-1.54,0-.59.59-1.42,1.07-1.54.36-.12.71-.12,1.07-.12,1.07-.12,2.85-.36,3.79-.24.95.24,1.78.36,2.61,0,.83-.36,1.66-.47,2.61-.12.71.36,1.42.36,2.13,0,.47-.24.95.12,1.3.12.95-.24,1.9.36,2.73-.12.36-.24.71-.24.95-.12,1.66.59,3.32.36,4.98.59,2.96.47,9.01.95,10.91,3.56,2.13,2.13,4.03,2.73,5.93,6.76.36,2.13,2.25,7.59,2.13,9.72,0,1.54.24,2.96-.12,4.39-.59,2.96-1.42,8.54-3.56,11.38-1.07,3.2-5.1,4.62-7.71,6.64-1.78,1.3-6.76,1.78-9.01,2.02-.47,0-.83,0-1.3.12-.36,0-.59.24-.59.59-.12.47-.12,1.07-.12,1.66,0,1.3.59,2.49.24,3.79.47,1.19-.24,2.37-.24,3.56.12,3.08,0,6.17,0,9.25,0,3.91-.36,7.71,0,11.62.12.83,0,1.54,0,2.37,0,.47.36.83.83.83.71,0,1.42.12,2.02-.12.71-.24,1.19-.12,1.9,0,.83.24,1.9-.24,2.37.59s-.36,1.66,0,2.61c.12.24-.47.83-.83.83-1.19.12-2.25.12-3.32.12-1.9.12-3.79-.24-5.57.59-2.37-.24-4.62.36-6.88-.36ZM166.7,110.9c1.19.24,2.25-.36,3.32-.71,1.07-.36,2.13-1.07,2.85-2.02,1.66-2.61,2.02-5.57,2.49-8.54.24-1.19,0-2.61.47-3.56.71-1.54-.36-2.61-.24-3.91.12-.47,0-.83,0-1.3.12-.59.36-1.07.36-1.66-.12-.59-.36-1.19-.47-1.9-.36-3.68-1.3-6.88-2.73-10.2-.71-1.78-2.13-2.73-3.91-3.2-1.19-.36-2.37-.47-3.56-.59-.12,0-.36.24-.36.36-.12,1.54-.12,2.96-.12,4.39v3.91c-.12,1.3.12,2.73-.24,3.91-.36,1.3.12,2.49,0,3.79-.12,1.19.12,2.25-.24,3.44-.24.95-.24,2.02.12,2.96.47,1.3.24,2.61.24,3.91,0,.24-.24.59-.12.95.47,2.61.36,5.22.24,7.83,0,.71,0,1.3.12,2.02,0,.24,0,.71.59.47.36-.24.83-.24,1.19-.36Z"/>
  </g>
  <g class="cls-3">
    <path class="cls-2" d="M191.25,152.99c-.24,0-.59-.24-.71-.47-.59-.71-.71-2.49-.24-3.08.12-.24.36-.36.59-.36.47-.12,1.66,0,2.25-.12,1.07-.24,2.13.12,3.2-.12.59-1.07.24-2.85.24-3.91,0-1.19.24-2.37-.47-3.56v-.36c.83-1.3-.12-2.73-.12-4.15,0-.36,0-.83.12-1.3,1.07-3.32.36-6.76.47-10.08-.59-1.19-.36-2.37-.12-3.56.24-.83.12-1.78-.12-2.61-.24-.71.47-1.42-.12-2.13-.47-.71,0-1.3.24-1.9.12-.24,0-.59,0-.95,0-1.07-.47-1.9-.47-2.96,0-.95.59-1.9,0-2.85.36-1.19.24-2.25,0-3.44-.24-1.07,0-2.25,0-3.32v-17.43c-.12-1.19,0-2.37-.47-3.56-.36-.71-.12-1.78-.12-2.61.12-.36.24-.59.24-.95-.24-.83-.12-1.9-.59-2.49-.59-.71-1.66-.24-2.49-.24h-.36c-2.37.12-2.96-.47-2.85-2.85,0-.71.36-1.07.95-1.07,4.15-.36,8.3-1.3,12.45-.36.12,0,.36,0,.59-.12,1.9-.36,3.68-.47,5.57.12.71.24,1.54.24,2.25.12,1.42-.12,4.74.12,5.93.83,2.49,1.42,7,1.19,8.3,3.91.59,1.3,3.56,3.68,3.91,5.1.36,1.19.83,2.49,1.19,3.79.36,1.54.47,2.73.95,5.1.36,1.66.24,3.32.36,4.98.12,3.44-1.9,7.94-3.56,10.67-.95,3.2-4.15,4.98-7.23,6.4-.83.36-4.51,1.07-5.34,1.42-1.19.71-1.66.24-1.19,1.54,2.25.83,6.64,1.42,7,2.25,1.78.83,2.25,2.49,2.96,3.56.12.71.36,1.42.59,2.25.83,3.08,2.13,6.17,2.85,9.37.12.59.47,1.19.47,1.9.12.95.47,1.9.83,2.85.71,1.66,1.42,3.44,1.78,5.22.24.95.47,2.02.95,2.85.47.83.36,2.02,1.3,2.61.83.59,1.3,1.54,2.25,1.66.36.12,1.19.36,1.66.36.59.36,1.3-.24,1.78.59.47.83.59,1.54.24,2.49-.24.47-.24.83-.83.95-.36.12-.71.24-.95.12-.36-.12-6.52-.36-6.76-.12h-3.32c-.83,0-3.2-.95-3.79-1.54-.71-.71-2.02-2.02-2.25-3.2-.24-.83-.59-1.66-1.07-2.49-1.42-2.73-1.54-3.68-2.37-6.64-1.07-3.56-1.9-7.11-2.96-10.67l-1.78-4.98c-.59-1.54-1.19-3.08-1.3-4.74-.36-1.19-.95-3.2-1.3-3.91-.24-.24-.59-.24-.95-.12-.12,0-.24.24-.36.47v2.73c0,.95-.12,1.9,0,2.96,0,.83-.83,1.54-.24,2.49.47.83-.24,1.9.24,2.73-.59.95,0,2.02,0,2.96-.12.83-.47,1.66-.24,2.49.71,3.2.24,6.4.24,9.6v6.28c0,.71.36.95,1.07.95,1.07.12,2.25,0,3.32.12,1.07,0,1.54.47,1.54,1.66.12.24,0,.36.12.59,0,1.19-.95,2.37-2.02,2.13-1.42-.36-2.73,0-4.03,0-2.49.12-4.86.12-7.35.24-.59,0-1.07.36-1.78,0-.71-.36-4.51,0-6.76,0-.47,0-1.54,0-2.02-.12ZM211.53,110.18c1.54-1.07,2.85-.95,4.62-2.61.95-.59,1.3-1.66,1.78-2.61.12-.12.12-.36.24-.59.59-1.54,1.19-1.66,1.78-3.2.24-.59,0-1.3.36-1.9.36-.95-.47-1.9.24-2.85.36-.47.12-1.3.12-1.42.12-2.02.36-5.69,0-7.23-.47-2.73-1.19-3.79-1.54-6.52-.24-1.19-1.07-1.66-1.54-2.73-.95-2.13-2.73-3.32-4.74-3.79-1.07-.36-2.25-.59-3.2-.24-.36,0-.59-.12-.59.36-.12.47,0,1.54,0,2.13v3.68c-.12,1.19-.12,2.37-.24,3.56,0,1.19.59,2.85.24,4.74-.36,1.19.36,2.37-.24,3.44.83,1.19-.24,2.25-.12,3.44.12,2.85-.24,5.69.24,8.54.12,1.3.36,1.19-.12,2.49-.36.83-.12,1.9-.12,2.96,0,.24.24.59.59.59.83-.12,1.66.12,2.25-.24Z"/>
    <path class="cls-2" d="M253.27,153.35c-.24-.12-.36-.36-.59-.36-.83,0-1.54.71-2.61.24-.59-.36-1.42-.24-2.25-.24s-1.78-.24-2.61,0c-1.3.36-2.49-.24-3.79-.12s-2.73,0-4.03,0c-.47,0-.71-.24-.95-.71-1.07-2.02-.59-2.96,1.9-3.2,1.3-.12,2.61,0,4.03,0,.47-.12.71-.36.71-.95v-13.52c0-.83-.12-1.54-.36-2.37-.24-.59-.12-1.3-.24-1.9-.24-1.3.83-2.37.47-3.79-.24-1.19-.47-3.2-.47-4.51v-7.94c0-.83,0-1.54.47-2.25.24-.47.24-1.07.24-1.66-.36-9.01-.71-18.26-.12-19.57,0-3.32.12-6.64,0-9.96,0-.95.59-1.78.24-2.85-.36-.83-.24-2.13-.24-2.96-.12-.47-.12-.71-.83-.59-1.07.12-2.49.24-3.56.24-1.3.12-1.9-.59-2.02-1.66,0-.47,0-.95.12-1.42,0-.36.24-.83.83-.83,1.3,0,2.61-.12,4.27-.12,1.07,0,2.02.12,2.96,0,.36-.24.83-.24,1.3-.24,1.9-.24,3.79.59,5.69-.12,1.66.83,3.2.47,4.74,0,.47-.12.95.12,1.42.12,2.96,0,7.35,0,10.32-.12.47,0,1.19,0,1.54.24.59.36,1.07-.12,1.42.47.36.36.12,1.9.24,2.37.24.95.12,2.02.12,2.96,0,2.13,0,4.27.12,6.28.12,1.19.47,2.25.24,3.56-.12.36.12,1.42-.24,1.54-.12.12-.36.12-.59.24-.71,0-1.3,0-2.02.24-.36.12-.59-.12-.71-.36,0-1.54-1.54-3.2-1.54-4.86,0-1.19-.71-2.49-1.19-3.68-.36-1.07-.83-2.13-1.07-3.08-.47-1.54-2.96-2.13-4.39-2.13-1.19,0-2.37.36-3.44.47-.71.95-.36,2.02-.36,2.96v6.28c0,.47.47,1.19,0,1.54-.47.24,0,2.96,0,4.39v2.61c0,.95.36,2.13,0,2.96-.36.83,0,4.98,0,7.35,0,.59,0,1.19.12,1.66,0,.12.36.71.47.59,1.42-.59,3.32.12,4.86,0,.47-.12.83-.36.83-.83v-3.68c0-.83.36-1.54,1.07-1.54,2.13-.24,2.73.24,2.73,2.85,0,1.3.36,3.91.36,3.91.12.12,0,.36,0,.59-.59,1.42-.24,2.37-.36,3.91,0,1.3,0,2.49-.12,3.68,0,1.3-.59,1.66-1.42,1.78-.83,0-1.19-.12-1.42-.95-.36-.71-.59-1.42-.59-2.25v-2.25c0-.24-.24-.95-.36-.95-1.54.12-3.08-.71-4.51,0-.36.24-1.07,0-1.3.24-.12.24.12,1.3.12,1.78,0,1.78.12,3.91.12,5.69-.24,2.37.12,8.3-.12,9.84.47.12.12,2.49.12,3.68,0,.95.47,2.13.12,2.96-.47.83.59,7.47-.12,13.52v2.02c.12.71.47,1.07,1.19.95.71-.24,1.42-.47,2.25-.59,1.19-.12,4.15.59,5.1-.47.71-.83,1.07-2.13,1.3-3.32.24-1.3,1.19-2.37.83-3.79,1.07-2.61,1.9-5.93,2.37-8.42.36-.83.71-.59,1.54-.59.95,0,1.42-.24,1.9,0,.36.71.71,2.49.24,3.2-.12.12,0,.47,0,.71.24.95.59,1.78.24,2.85-.24.83.24,1.9.24,2.85.12,2.73.12,5.57.12,8.3v.95c-.12,1.07-1.19,2.02-2.13,1.66-1.9-.71-3.68-.12-5.46-.12-.95-.12-1.78-.36-2.73-.12-1.3.36-4.15.24-5.57.36-1.19,0-2.25-.12-3.32.47-.47.24-1.3.12-1.9-.12Z"/>
    <path class="cls-2" d="M278.17,152.99c-.59,0-1.19-.59-1.3-1.19-.12-.36,0-.59,0-.95,0-1.19.36-1.66,1.42-1.78h3.08c.71,0,1.3-.71.95-1.3-.59-1.3-.47-3.79-.47-5.1s.12-2.61.47-3.91c.24-1.42.12-3.08-.12-4.62-.24-.83-.36-1.66-.36-2.49,0-7.11.59-15.53,0-21.23,0-6.28-.12-12.69-.12-18.97,0-1.42,0-2.85.47-4.27.12-.24.24-.71.12-.95-.47-1.07-.12-2.25-.36-3.44-.24-1.19-.12-2.37-.12-3.68v-3.56c0-.24-.12-.12-.12-.36,0-.47-.36-.71-.83-.71-.83-.12-1.66,0-2.49-.12-.95,0-1.54-.59-1.66-1.66v-.95c0-.83.24-1.19,1.07-1.3,2.85-.71,5.81-.71,8.54-.59h6.17c1.3-.12,2.02.71,2.37,1.78.59,1.9,1.19,3.68,1.42,5.34.12.59.24,1.3.47,1.9.71,1.9.71,3.44,1.07,5.45.12,1.07.36,2.02.71,2.85,1.19,2.25.95,4.74,1.54,7.11.24,1.19,1.19,2.73,1.3,3.91.12.71.47,1.3.47,2.02.24,1.78.71,3.56,1.19,5.34.36,1.54.83,2.85,1.07,4.39.24,1.42,1.07,2.85,1.19,4.39,0,.24.12.36.24.59.12-.24.24-.36.24-.59.24-.59.47-1.19.59-1.9.83-4.03,1.42-8.06,2.49-12.09.71-2.25,1.3-4.39,1.42-6.76,0-.36.12-.59.12-.95,1.54-4.98,1.54-9.96,3.32-14.94.47-1.42.59-3.08.83-4.51.12-.71-.12-1.42.47-1.9.83-.59,1.54-1.19,2.61-1.19,3.2,0,6.64-.83,11.15,0,1.66,0,3.32,0,4.98.12h1.3c.47.12,1.07,1.07.95,1.54-.24.59-.47,1.19-.47,1.9-.12.71-.36,1.07-1.07,1.07-.83,0-1.66,0-2.37-.36-.47-.24-1.07-.12-1.54-.12-.36,0-.59.24-.71.59v1.3c0,1.42-.24,2.96.12,4.27.24,1.42-.12,2.61-.24,3.91,0,1.42.47,2.96.12,4.51-.24,1.42,0,3.08,0,4.62v8.89c0,.95-.12,1.78.36,2.61.12.24,0,.71-.12.95-.59,2.49-.12,5.1-.24,7.59.83,1.78.59,3.68.59,5.57.12,2.61,0,5.22,0,7.94,0,1.07-.24,2.25.47,3.2v.36c0,1.3-.36,2.61-.12,3.79.12,1.3.36,2.37-.12,3.56,0,.24-.12.47-.12.71.83,2.61.24,5.45.47,8.18v.95c.12.36.36.59.71.59.59.12,1.19.12,1.78-.12.47-.24,1.07-.24,1.54-.36.59-.12,1.07.12,1.42.59.24.36.24.83,0,1.3,0,0-.12.12-.12.24.12.71.71,1.54,0,2.13-.59.36-1.42.36-2.13.36-.95,0-1.78.47-2.73.12-.36-.24-.95-.24-1.19,0-1.42.71-2.96.36-4.39.59-1.3.12-2.73-.24-4.03.36-1.19-.59-2.49-.36-3.79-.47-1.3,0-2.73.12-4.03.12-1.54,0-2.25-1.19-1.66-2.73,0-.12.12-.24.12-.36.36-.95.47-.95,1.3-1.07h1.54q1.66,0,1.66-1.9c0-2.25.24-4.39-.47-6.52.24-3.2.36-6.28,0-9.96-.12-3.44-.12-6.88-.12-10.32-.59-1.3,0-2.61,0-3.79,0-2.49.12-4.86.12-7.35,1.07-7.59-.12-12.81-.12-19.21l.24-4.15c0-.12-.36-.12-.47-.24-.12.12-.24.24-.24.36-.12,1.42-1.07,5.93-1.54,7.47-.47,1.54-.59,3.2-.95,4.74l-2.49,10.55-.71,4.51c-.36,1.3-.47,2.73-.95,4.15-.36,1.42-.71,2.85-.95,4.39-.12,1.42-.47,2.85-.71,4.27-.47,2.96-.95,6.05-1.19,9.01-.12,1.66-.71,3.2-1.19,4.74-.24.47-.47,1.3-1.07,1.3-1.54-.12-2.96.59-3.44-.47-.24-.47-.59-1.54-.59-2.13,0-1.07,0-1.42-.59-2.13-.12-.24-.24-.47-.24-.59-.24-2.61-1.66-4.74-2.13-7.23-.47-2.49-1.66-4.74-1.9-7.23-1.3-3.44-1.3-7.23-2.61-10.67-.47-1.07-.59-2.37-.83-3.56,0-.36-.12-.83-.24-1.19-.59-1.19-.83-2.49-1.19-3.79-.71-3.08-1.07-5.93-1.9-9.01l-1.78-6.88-.36-.59c0,.24-.36-.12-.36.12-.12.59-.12,1.78,0,2.37.24,1.3-.36,2.37-.12,3.56.24,1.07.12,2.25.12,3.32,0,1.19.12,2.37.12,3.68-.12,1.19-.36,2.25-.36,3.44-.12.71-.36,1.42-.12,2.02.71,2.25.24,4.51.47,6.88,0,.47-.12,1.07-.24,1.54-.24.47-.24.83-.12,1.3.47,1.66.59,3.44-.12,5.1-.12.24-.12.47-.12.71.24,3.2-.36,6.4.24,9.6.12.59,0,1.19,0,1.78,0,.24-.24.47-.12.59.83,2.25.36,4.62.36,6.88.12,2.37.36,5.81.12,8.18v.59c.12.59-.12,1.3.47,1.54.24.12.71-.24,1.19-.24,1.3-.12,2.73-.12,4.03-.12.24,0,.36.24.47.47.12,0,.12.24.12.24,0,4.15.47,3.68-3.2,3.79-1.78,0-3.56-.24-5.22.47-.24.12-.47.12-.59.12-1.78-.95-3.56-.36-5.34-.59Z"/>
    <path class="cls-2" d="M356.54,153.35c-.24-.12-.36-.36-.59-.36-.83,0-1.54.71-2.61.24-.59-.36-1.42-.24-2.25-.24s-1.78-.24-2.61,0c-1.3.36-2.49-.24-3.79-.12s-2.73,0-4.03,0c-.47,0-.71-.24-.95-.71-1.07-2.02-.59-2.96,1.9-3.2,1.3-.12,2.61,0,4.03,0,.47-.12.71-.36.71-.95v-13.52c0-.83-.12-1.54-.36-2.37-.24-.59-.12-1.3-.24-1.9-.24-1.3.83-2.37.47-3.79-.24-1.19-.47-3.2-.47-4.51v-7.94c0-.83,0-1.54.47-2.25.24-.47.24-1.07.24-1.66-.36-9.01-.71-18.26-.12-19.57,0-3.32.12-6.64,0-9.96,0-.95.59-1.78.24-2.85-.36-.83-.24-2.13-.24-2.96-.12-.47-.12-.71-.83-.59-1.07.12-2.49.24-3.56.24-1.3.12-1.9-.59-2.02-1.66,0-.47,0-.95.12-1.42,0-.36.24-.83.83-.83,1.3,0,2.61-.12,4.27-.12,1.07,0,2.02.12,2.96,0,.36-.24.83-.24,1.3-.24,1.9-.24,3.79.59,5.69-.12,1.66.83,3.2.47,4.74,0,.47-.12.95.12,1.42.12,2.96,0,7.35,0,10.32-.12.47,0,1.19,0,1.54.24.59.36,1.07-.12,1.42.47.36.36.12,1.9.24,2.37.24.95.12,2.02.12,2.96,0,2.13,0,4.27.12,6.28.12,1.19.47,2.25.24,3.56-.12.36.12,1.42-.24,1.54-.12.12-.36.12-.59.24-.71,0-1.3,0-2.02.24-.36.12-.59-.12-.71-.36,0-1.54-1.54-3.2-1.54-4.86,0-1.19-.71-2.49-1.19-3.68-.36-1.07-.83-2.13-1.07-3.08-.47-1.54-2.96-2.13-4.39-2.13-1.19,0-2.37.36-3.44.47-.71.95-.36,2.02-.36,2.96v6.28c0,.47.47,1.19,0,1.54-.47.24,0,2.96,0,4.39v2.61c0,.95.36,2.13,0,2.96-.36.83,0,4.98,0,7.35,0,.59,0,1.19.12,1.66,0,.12.36.71.47.59,1.42-.59,3.32.12,4.86,0,.47-.12.83-.36.83-.83v-3.68c0-.83.36-1.54,1.07-1.54,2.13-.24,2.73.24,2.73,2.85,0,1.3.36,3.91.36,3.91.12.12,0,.36,0,.59-.59,1.42-.24,2.37-.36,3.91,0,1.3,0,2.49-.12,3.68,0,1.3-.59,1.66-1.42,1.78-.83,0-1.19-.12-1.42-.95-.36-.71-.59-1.42-.59-2.25v-2.25c0-.24-.24-.95-.36-.95-1.54.12-3.08-.71-4.51,0-.36.24-1.07,0-1.3.24-.12.24.12,1.3.12,1.78,0,1.78.12,3.91.12,5.69-.24,2.37.12,8.3-.12,9.84.47.12.12,2.49.12,3.68,0,.95.47,2.13.12,2.96-.47.83.59,7.47-.12,13.52v2.02c.12.71.47,1.07,1.19.95.71-.24,1.42-.47,2.25-.59,1.19-.12,4.15.59,5.1-.47.71-.83,1.07-2.13,1.3-3.32.24-1.3,1.19-2.37.83-3.79,1.07-2.61,1.9-5.93,2.37-8.42.36-.83.71-.59,1.54-.59.95,0,1.42-.24,1.9,0,.36.71.71,2.49.24,3.2-.12.12,0,.47,0,.71.24.95.59,1.78.24,2.85-.24.83.24,1.9.24,2.85.12,2.73.12,5.57.12,8.3v.95c-.12,1.07-1.19,2.02-2.13,1.66-1.9-.71-3.68-.12-5.46-.12-.95-.12-1.78-.36-2.73-.12-1.3.36-4.15.24-5.57.36-1.19,0-2.25-.12-3.32.47-.47.24-1.3.12-1.9-.12Z"/>
  </g>
  <g class="cls-3">
    <path class="cls-1" d="M191.25,152.99c-.24,0-.59-.24-.71-.47-.59-.71-.71-2.49-.24-3.08.12-.24.36-.36.59-.36.47-.12,1.66,0,2.25-.12,1.07-.24,2.13.12,3.2-.12.59-1.07.24-2.85.24-3.91,0-1.19.24-2.37-.47-3.56v-.36c.83-1.3-.12-2.73-.12-4.15,0-.36,0-.83.12-1.3,1.07-3.32.36-6.76.47-10.08-.59-1.19-.36-2.37-.12-3.56.24-.83.12-1.78-.12-2.61-.24-.71.47-1.42-.12-2.13-.47-.71,0-1.3.24-1.9.12-.24,0-.59,0-.95,0-1.07-.47-1.9-.47-2.96,0-.95.59-1.9,0-2.85.36-1.19.24-2.25,0-3.44-.24-1.07,0-2.25,0-3.32v-17.43c-.12-1.19,0-2.37-.47-3.56-.36-.71-.12-1.78-.12-2.61.12-.36.24-.59.24-.95-.24-.83-.12-1.9-.59-2.49-.59-.71-1.66-.24-2.49-.24h-.36c-2.37.12-2.96-.47-2.85-2.85,0-.71.36-1.07.95-1.07,4.15-.36,8.3-1.3,12.45-.36.12,0,.36,0,.59-.12,1.9-.36,3.68-.47,5.57.12.71.24,1.54.24,2.25.12,1.42-.12,4.74.12,5.93.83,2.49,1.42,7,1.19,8.3,3.91.59,1.3,3.56,3.68,3.91,5.1.36,1.19.83,2.49,1.19,3.79.36,1.54.47,2.73.95,5.1.36,1.66.24,3.32.36,4.98.12,3.44-1.9,7.94-3.56,10.67-.95,3.2-4.15,4.98-7.23,6.4-.83.36-4.51,1.07-5.34,1.42-1.19.71-1.66.24-1.19,1.54,2.25.83,6.64,1.42,7,2.25,1.78.83,2.25,2.49,2.96,3.56.12.71.36,1.42.59,2.25.83,3.08,2.13,6.17,2.85,9.37.12.59.47,1.19.47,1.9.12.95.47,1.9.83,2.85.71,1.66,1.42,3.44,1.78,5.22.24.95.47,2.02.95,2.85.47.83.36,2.02,1.3,2.61.83.59,1.3,1.54,2.25,1.66.36.12,1.19.36,1.66.36.59.36,1.3-.24,1.78.59.47.83.59,1.54.24,2.49-.24.47-.24.83-.83.95-.36.12-.71.24-.95.12-.36-.12-6.52-.36-6.76-.12h-3.32c-.83,0-3.2-.95-3.79-1.54-.71-.71-2.02-2.02-2.25-3.2-.24-.83-.59-1.66-1.07-2.49-1.42-2.73-1.54-3.68-2.37-6.64-1.07-3.56-1.9-7.11-2.96-10.67l-1.78-4.98c-.59-1.54-1.19-3.08-1.3-4.74-.36-1.19-.95-3.2-1.3-3.91-.24-.24-.59-.24-.95-.12-.12,0-.24.24-.36.47v2.73c0,.95-.12,1.9,0,2.96,0,.83-.83,1.54-.24,2.49.47.83-.24,1.9.24,2.73-.59.95,0,2.02,0,2.96-.12.83-.47,1.66-.24,2.49.71,3.2.24,6.4.24,9.6v6.28c0,.71.36.95,1.07.95,1.07.12,2.25,0,3.32.12,1.07,0,1.54.47,1.54,1.66.12.24,0,.36.12.59,0,1.19-.95,2.37-2.02,2.13-1.42-.36-2.73,0-4.03,0-2.49.12-4.86.12-7.35.24-.59,0-1.07.36-1.78,0-.71-.36-4.51,0-6.76,0-.47,0-1.54,0-2.02-.12ZM211.53,110.18c1.54-1.07,2.85-.95,4.62-2.61.95-.59,1.3-1.66,1.78-2.61.12-.12.12-.36.24-.59.59-1.54,1.19-1.66,1.78-3.2.24-.59,0-1.3.36-1.9.36-.95-.47-1.9.24-2.85.36-.47.12-1.3.12-1.42.12-2.02.36-5.69,0-7.23-.47-2.73-1.19-3.79-1.54-6.52-.24-1.19-1.07-1.66-1.54-2.73-.95-2.13-2.73-3.32-4.74-3.79-1.07-.36-2.25-.59-3.2-.24-.36,0-.59-.12-.59.36-.12.47,0,1.54,0,2.13v3.68c-.12,1.19-.12,2.37-.24,3.56,0,1.19.59,2.85.24,4.74-.36,1.19.36,2.37-.24,3.44.83,1.19-.24,2.25-.12,3.44.12,2.85-.24,5.69.24,8.54.12,1.3.36,1.19-.12,2.49-.36.83-.12,1.9-.12,2.96,0,.24.24.59.59.59.83-.12,1.66.12,2.25-.24Z"/>
    <path class="cls-1" d="M253.27,153.35c-.24-.12-.36-.36-.59-.36-.83,0-1.54.71-2.61.24-.59-.36-1.42-.24-2.25-.24s-1.78-.24-2.61,0c-1.3.36-2.49-.24-3.79-.12s-2.73,0-4.03,0c-.47,0-.71-.24-.95-.71-1.07-2.02-.59-2.96,1.9-3.2,1.3-.12,2.61,0,4.03,0,.47-.12.71-.36.71-.95v-13.52c0-.83-.12-1.54-.36-2.37-.24-.59-.12-1.3-.24-1.9-.24-1.3.83-2.37.47-3.79-.24-1.19-.47-3.2-.47-4.51v-7.94c0-.83,0-1.54.47-2.25.24-.47.24-1.07.24-1.66-.36-9.01-.71-18.26-.12-19.57,0-3.32.12-6.64,0-9.96,0-.95.59-1.78.24-2.85-.36-.83-.24-2.13-.24-2.96-.12-.47-.12-.71-.83-.59-1.07.12-2.49.24-3.56.24-1.3.12-1.9-.59-2.02-1.66,0-.47,0-.95.12-1.42,0-.36.24-.83.83-.83,1.3,0,2.61-.12,4.27-.12,1.07,0,2.02.12,2.96,0,.36-.24.83-.24,1.3-.24,1.9-.24,3.79.59,5.69-.12,1.66.83,3.2.47,4.74,0,.47-.12.95.12,1.42.12,2.96,0,7.35,0,10.32-.12.47,0,1.19,0,1.54.24.59.36,1.07-.12,1.42.47.36.36.12,1.9.24,2.37.24.95.12,2.02.12,2.96,0,2.13,0,4.27.12,6.28.12,1.19.47,2.25.24,3.56-.12.36.12,1.42-.24,1.54-.12.12-.36.12-.59.24-.71,0-1.3,0-2.02.24-.36.12-.59-.12-.71-.36,0-1.54-1.54-3.2-1.54-4.86,0-1.19-.71-2.49-1.19-3.68-.36-1.07-.83-2.13-1.07-3.08-.47-1.54-2.96-2.13-4.39-2.13-1.19,0-2.37.36-3.44.47-.71.95-.36,2.02-.36,2.96v6.28c0,.47.47,1.19,0,1.54-.47.24,0,2.96,0,4.39v2.61c0,.95.36,2.13,0,2.96-.36.83,0,4.98,0,7.35,0,.59,0,1.19.12,1.66,0,.12.36.71.47.59,1.42-.59,3.32.12,4.86,0,.47-.12.83-.36.83-.83v-3.68c0-.83.36-1.54,1.07-1.54,2.13-.24,2.73.24,2.73,2.85,0,1.3.36,3.91.36,3.91.12.12,0,.36,0,.59-.59,1.42-.24,2.37-.36,3.91,0,1.3,0,2.49-.12,3.68,0,1.3-.59,1.66-1.42,1.78-.83,0-1.19-.12-1.42-.95-.36-.71-.59-1.42-.59-2.25v-2.25c0-.24-.24-.95-.36-.95-1.54.12-3.08-.71-4.51,0-.36.24-1.07,0-1.3.24-.12.24.12,1.3.12,1.78,0,1.78.12,3.91.12,5.69-.24,2.37.12,8.3-.12,9.84.47.12.12,2.49.12,3.68,0,.95.47,2.13.12,2.96-.47.83.59,7.47-.12,13.52v2.02c.12.71.47,1.07,1.19.95.71-.24,1.42-.47,2.25-.59,1.19-.12,4.15.59,5.1-.47.71-.83,1.07-2.13,1.3-3.32.24-1.3,1.19-2.37.83-3.79,1.07-2.61,1.9-5.93,2.37-8.42.36-.83.71-.59,1.54-.59.95,0,1.42-.24,1.9,0,.36.71.71,2.49.24,3.2-.12.12,0,.47,0,.71.24.95.59,1.78.24,2.85-.24.83.24,1.9.24,2.85.12,2.73.12,5.57.12,8.3v.95c-.12,1.07-1.19,2.02-2.13,1.66-1.9-.71-3.68-.12-5.46-.12-.95-.12-1.78-.36-2.73-.12-1.3.36-4.15.24-5.57.36-1.19,0-2.25-.12-3.32.47-.47.24-1.3.12-1.9-.12Z"/>
    <path class="cls-1" d="M278.17,152.99c-.59,0-1.19-.59-1.3-1.19-.12-.36,0-.59,0-.95,0-1.19.36-1.66,1.42-1.78h3.08c.71,0,1.3-.71.95-1.3-.59-1.3-.47-3.79-.47-5.1s.12-2.61.47-3.91c.24-1.42.12-3.08-.12-4.62-.24-.83-.36-1.66-.36-2.49,0-7.11.59-15.53,0-21.23,0-6.28-.12-12.69-.12-18.97,0-1.42,0-2.85.47-4.27.12-.24.24-.71.12-.95-.47-1.07-.12-2.25-.36-3.44-.24-1.19-.12-2.37-.12-3.68v-3.56c0-.24-.12-.12-.12-.36,0-.47-.36-.71-.83-.71-.83-.12-1.66,0-2.49-.12-.95,0-1.54-.59-1.66-1.66v-.95c0-.83.24-1.19,1.07-1.3,2.85-.71,5.81-.71,8.54-.59h6.17c1.3-.12,2.02.71,2.37,1.78.59,1.9,1.19,3.68,1.42,5.34.12.59.24,1.3.47,1.9.71,1.9.71,3.44,1.07,5.45.12,1.07.36,2.02.71,2.85,1.19,2.25.95,4.74,1.54,7.11.24,1.19,1.19,2.73,1.3,3.91.12.71.47,1.3.47,2.02.24,1.78.71,3.56,1.19,5.34.36,1.54.83,2.85,1.07,4.39.24,1.42,1.07,2.85,1.19,4.39,0,.24.12.36.24.59.12-.24.24-.36.24-.59.24-.59.47-1.19.59-1.9.83-4.03,1.42-8.06,2.49-12.09.71-2.25,1.3-4.39,1.42-6.76,0-.36.12-.59.12-.95,1.54-4.98,1.54-9.96,3.32-14.94.47-1.42.59-3.08.83-4.51.12-.71-.12-1.42.47-1.9.83-.59,1.54-1.19,2.61-1.19,3.2,0,6.64-.83,11.15,0,1.66,0,3.32,0,4.98.12h1.3c.47.12,1.07,1.07.95,1.54-.24.59-.47,1.19-.47,1.9-.12.71-.36,1.07-1.07,1.07-.83,0-1.66,0-2.37-.36-.47-.24-1.07-.12-1.54-.12-.36,0-.59.24-.71.59v1.3c0,1.42-.24,2.96.12,4.27.24,1.42-.12,2.61-.24,3.91,0,1.42.47,2.96.12,4.51-.24,1.42,0,3.08,0,4.62v8.89c0,.95-.12,1.78.36,2.61.12.24,0,.71-.12.95-.59,2.49-.12,5.1-.24,7.59.83,1.78.59,3.68.59,5.57.12,2.61,0,5.22,0,7.94,0,1.07-.24,2.25.47,3.2v.36c0,1.3-.36,2.61-.12,3.79.12,1.3.36,2.37-.12,3.56,0,.24-.12.47-.12.71.83,2.61.24,5.45.47,8.18v.95c.12.36.36.59.71.59.59.12,1.19.12,1.78-.12.47-.24,1.07-.24,1.54-.36.59-.12,1.07.12,1.42.59.24.36.24.83,0,1.3,0,0-.12.12-.12.24.12.71.71,1.54,0,2.13-.59.36-1.42.36-2.13.36-.95,0-1.78.47-2.73.12-.36-.24-.95-.24-1.19,0-1.42.71-2.96.36-4.39.59-1.3.12-2.73-.24-4.03.36-1.19-.59-2.49-.36-3.79-.47-1.3,0-2.73.12-4.03.12-1.54,0-2.25-1.19-1.66-2.73,0-.12.12-.24.12-.36.36-.95.47-.95,1.3-1.07h1.54q1.66,0,1.66-1.9c0-2.25.24-4.39-.47-6.52.24-3.2.36-6.28,0-9.96-.12-3.44-.12-6.88-.12-10.32-.59-1.3,0-2.61,0-3.79,0-2.49.12-4.86.12-7.35,1.07-7.59-.12-12.81-.12-19.21l.24-4.15c0-.12-.36-.12-.47-.24-.12.12-.24.24-.24.36-.12,1.42-1.07,5.93-1.54,7.47-.47,1.54-.59,3.2-.95,4.74l-2.49,10.55-.71,4.51c-.36,1.3-.47,2.73-.95,4.15-.36,1.42-.71,2.85-.95,4.39-.12,1.42-.47,2.85-.71,4.27-.47,2.96-.95,6.05-1.19,9.01-.12,1.66-.71,3.2-1.19,4.74-.24.47-.47,1.3-1.07,1.3-1.54-.12-2.96.59-3.44-.47-.24-.47-.59-1.54-.59-2.13,0-1.07,0-1.42-.59-2.13-.12-.24-.24-.47-.24-.59-.24-2.61-1.66-4.74-2.13-7.23-.47-2.49-1.66-4.74-1.9-7.23-1.3-3.44-1.3-7.23-2.61-10.67-.47-1.07-.59-2.37-.83-3.56,0-.36-.12-.83-.24-1.19-.59-1.19-.83-2.49-1.19-3.79-.71-3.08-1.07-5.93-1.9-9.01l-1.78-6.88-.36-.59c0,.24-.36-.12-.36.12-.12.59-.12,1.78,0,2.37.24,1.3-.36,2.37-.12,3.56.24,1.07.12,2.25.12,3.32,0,1.19.12,2.37.12,3.68-.12,1.19-.36,2.25-.36,3.44-.12.71-.36,1.42-.12,2.02.71,2.25.24,4.51.47,6.88,0,.47-.12,1.07-.24,1.54-.24.47-.24.83-.12,1.3.47,1.66.59,3.44-.12,5.1-.12.24-.12.47-.12.71.24,3.2-.36,6.4.24,9.6.12.59,0,1.19,0,1.78,0,.24-.24.47-.12.59.83,2.25.36,4.62.36,6.88.12,2.37.36,5.81.12,8.18v.59c.12.59-.12,1.3.47,1.54.24.12.71-.24,1.19-.24,1.3-.12,2.73-.12,4.03-.12.24,0,.36.24.47.47.12,0,.12.24.12.24,0,4.15.47,3.68-3.2,3.79-1.78,0-3.56-.24-5.22.47-.24.12-.47.12-.59.12-1.78-.95-3.56-.36-5.34-.59Z"/>
    <path class="cls-1" d="M356.54,153.35c-.24-.12-.36-.36-.59-.36-.83,0-1.54.71-2.61.24-.59-.36-1.42-.24-2.25-.24s-1.78-.24-2.61,0c-1.3.36-2.49-.24-3.79-.12s-2.73,0-4.03,0c-.47,0-.71-.24-.95-.71-1.07-2.02-.59-2.96,1.9-3.2,1.3-.12,2.61,0,4.03,0,.47-.12.71-.36.71-.95v-13.52c0-.83-.12-1.54-.36-2.37-.24-.59-.12-1.3-.24-1.9-.24-1.3.83-2.37.47-3.79-.24-1.19-.47-3.2-.47-4.51v-7.94c0-.83,0-1.54.47-2.25.24-.47.24-1.07.24-1.66-.36-9.01-.71-18.26-.12-19.57,0-3.32.12-6.64,0-9.96,0-.95.59-1.78.24-2.85-.36-.83-.24-2.13-.24-2.96-.12-.47-.12-.71-.83-.59-1.07.12-2.49.24-3.56.24-1.3.12-1.9-.59-2.02-1.66,0-.47,0-.95.12-1.42,0-.36.24-.83.83-.83,1.3,0,2.61-.12,4.27-.12,1.07,0,2.02.12,2.96,0,.36-.24.83-.24,1.3-.24,1.9-.24,3.79.59,5.69-.12,1.66.83,3.2.47,4.74,0,.47-.12.95.12,1.42.12,2.96,0,7.35,0,10.32-.12.47,0,1.19,0,1.54.24.59.36,1.07-.12,1.42.47.36.36.12,1.9.24,2.37.24.95.12,2.02.12,2.96,0,2.13,0,4.27.12,6.28.12,1.19.47,2.25.24,3.56-.12.36.12,1.42-.24,1.54-.12.12-.36.12-.59.24-.71,0-1.3,0-2.02.24-.36.12-.59-.12-.71-.36,0-1.54-1.54-3.2-1.54-4.86,0-1.19-.71-2.49-1.19-3.68-.36-1.07-.83-2.13-1.07-3.08-.47-1.54-2.96-2.13-4.39-2.13-1.19,0-2.37.36-3.44.47-.71.95-.36,2.02-.36,2.96v6.28c0,.47.47,1.19,0,1.54-.47.24,0,2.96,0,4.39v2.61c0,.95.36,2.13,0,2.96-.36.83,0,4.98,0,7.35,0,.59,0,1.19.12,1.66,0,.12.36.71.47.59,1.42-.59,3.32.12,4.86,0,.47-.12.83-.36.83-.83v-3.68c0-.83.36-1.54,1.07-1.54,2.13-.24,2.73.24,2.73,2.85,0,1.3.36,3.91.36,3.91.12.12,0,.36,0,.59-.59,1.42-.24,2.37-.36,3.91,0,1.3,0,2.49-.12,3.68,0,1.3-.59,1.66-1.42,1.78-.83,0-1.19-.12-1.42-.95-.36-.71-.59-1.42-.59-2.25v-2.25c0-.24-.24-.95-.36-.95-1.54.12-3.08-.71-4.51,0-.36.24-1.07,0-1.3.24-.12.24.12,1.3.12,1.78,0,1.78.12,3.91.12,5.69-.24,2.37.12,8.3-.12,9.84.47.12.12,2.49.12,3.68,0,.95.47,2.13.12,2.96-.47.83.59,7.47-.12,13.52v2.02c.12.71.47,1.07,1.19.95.71-.24,1.42-.47,2.25-.59,1.19-.12,4.15.59,5.1-.47.71-.83,1.07-2.13,1.3-3.32.24-1.3,1.19-2.37.83-3.79,1.07-2.61,1.9-5.93,2.37-8.42.36-.83.71-.59,1.54-.59.95,0,1.42-.24,1.9,0,.36.71.71,2.49.24,3.2-.12.12,0,.47,0,.71.24.95.59,1.78.24,2.85-.24.83.24,1.9.24,2.85.12,2.73.12,5.57.12,8.3v.95c-.12,1.07-1.19,2.02-2.13,1.66-1.9-.71-3.68-.12-5.46-.12-.95-.12-1.78-.36-2.73-.12-1.3.36-4.15.24-5.57.36-1.19,0-2.25-.12-3.32.47-.47.24-1.3.12-1.9-.12Z"/>
  </g>
  <g class="cls-3">
    <path class="cls-2" d="M430.49,153.36c-2.02-.83-3.44-2.96-4.62-4.98-.12-.24-.71-.12-.83.12l-.24.59c-.47.95-.95,2.02-1.78,2.85-.95,1.42-.47,2.37-2.13,2.02-.71-.24-1.66-.59-1.42-1.3.59-2.13.36-5.93.36-8.06,0-1.42-.12-2.61.12-3.91.24-1.3,0-2.85.24-4.15.12-.47.24-.95-.12-1.54v-.24c.83-3.2.24-6.4.47-9.6.12-.83.59-1.42,1.42-1.54h1.3c1.19,0,1.78-.12,1.9.95,0,1.42.12,3.56.24,4.98,0,1.9,1.07,4.39,1.19,6.4,0,2.13,1.07,3.91,1.54,6.05.36,1.66,1.42,2.37,1.78,4.03,1.19,1.42,1.54,2.85,3.2,3.79,1.19.59,2.73,1.07,4.15.83,1.3-.24,2.49-.59,3.56-1.42,2.02-1.78,3.44-2.96,4.27-5.57.47-1.9.47-6.64,0-8.54-1.07-3.68-2.85-7.71-4.74-11.03-1.42-2.37-2.49-4.86-4.27-7-.47-2.02-2.13-3.44-2.85-5.22-.83-1.78-2.02-3.2-1.42-4.15-1.3,0-2.85-2.61-3.08-3.79.71-.47-1.42-2.96-2.13-4.39-.59-1.19-.95-3.08-2.25-3.79.47-.24-1.9-4.39-2.85-6.76-.59-1.07-.71-2.25-1.07-3.44-.71-2.13-.83-4.51-1.78-6.64-.12-1.9-.24-3.91-.12-5.93,0-2.13.71-4.98,1.42-7.23.12-3.08.71-2.85,2.13-5.45.36-.83,1.3-1.07,1.78-1.78,1.54-2.61,3.56-3.91,6.4-5.34,1.66-.71,3.2-1.19,5.1-1.19,2.61-.12,5.1.71,7.47,1.9,1.19.47,1.9,1.54,2.49,2.61.36.59.59.59,1.07-.12.59-1.07,1.54-2.02,1.9-3.2,0-.24.12-.36.24-.59.36-.59,1.07-.95,1.66-.83.83.24,1.42.83,1.42,1.66,0,.36.12.83,0,1.3-.71,2.49-.59,4.98-.59,7.47,0,1.66,0,3.32-.36,4.98-.36,1.78-.24,3.68-.12,5.34,0,1.19-.36,4.62-.59,5.69-.12.36-.36.59-.71.59-.95.12-1.78.12-2.73.12-.47,0-.83-.12-.83-.71-.12-1.19-.59-4.86-.59-6.17-.12-1.3-.24-2.96-.95-4.27-.12-.24-.12-.71-.12-1.07.36-3.56-1.07-4.98-2.61-7.83-1.19-2.61-3.56-3.44-6.28-3.2h-.36c-1.54,1.07-3.44,1.19-4.74,2.61-1.54,1.54-2.49,3.32-3.08,5.34-.47,1.9,0,2.02,0,3.32-.12,3.68-.12,2.73.83,5.45.71,2.13,1.07,3.2,2.25,5.1,1.19,2.25,1.78,2.85,3.08,4.98l1.07,1.78c.47.71-.24,1.42.71,1.66.83.24,1.42,2.96,2.37,3.79.59.59.83,1.66,1.3,2.49,1.07,1.9,2.02,3.91,3.32,5.69,1.42,2.13,2.85,4.15,3.79,6.52.47,1.07.59,2.37,1.66,3.2,1.54,3.44,2.49,4.74,3.32,8.54.36,1.78.36,3.68,1.07,5.34.24.47.24,1.07.24,1.66,0,1.07.71,3.44.83,4.51.24,2.49.12,7.83,0,10.32-.12,1.07-1.3,7-1.9,7.95-1.07,2.02-2.37,2.96-3.68,4.98l-.71.71c-1.9,1.66-5.81,2.73-8.77,2.96-.47.12-1.07.12-1.66,0-2.02-.36-3.56-.47-5.57-1.19Z"/>
  </g>
  <g class="cls-3">
    <path class="cls-1" d="M430.49,153.36c-2.02-.83-3.44-2.96-4.62-4.98-.12-.24-.71-.12-.83.12l-.24.59c-.47.95-.95,2.02-1.78,2.85-.95,1.42-.47,2.37-2.13,2.02-.71-.24-1.66-.59-1.42-1.3.59-2.13.36-5.93.36-8.06,0-1.42-.12-2.61.12-3.91.24-1.3,0-2.85.24-4.15.12-.47.24-.95-.12-1.54v-.24c.83-3.2.24-6.4.47-9.6.12-.83.59-1.42,1.42-1.54h1.3c1.19,0,1.78-.12,1.9.95,0,1.42.12,3.56.24,4.98,0,1.9,1.07,4.39,1.19,6.4,0,2.13,1.07,3.91,1.54,6.05.36,1.66,1.42,2.37,1.78,4.03,1.19,1.42,1.54,2.85,3.2,3.79,1.19.59,2.73,1.07,4.15.83,1.3-.24,2.49-.59,3.56-1.42,2.02-1.78,3.44-2.96,4.27-5.57.47-1.9.47-6.64,0-8.54-1.07-3.68-2.85-7.71-4.74-11.03-1.42-2.37-2.49-4.86-4.27-7-.47-2.02-2.13-3.44-2.85-5.22-.83-1.78-2.02-3.2-1.42-4.15-1.3,0-2.85-2.61-3.08-3.79.71-.47-1.42-2.96-2.13-4.39-.59-1.19-.95-3.08-2.25-3.79.47-.24-1.9-4.39-2.85-6.76-.59-1.07-.71-2.25-1.07-3.44-.71-2.13-.83-4.51-1.78-6.64-.12-1.9-.24-3.91-.12-5.93,0-2.13.71-4.98,1.42-7.23.12-3.08.71-2.85,2.13-5.45.36-.83,1.3-1.07,1.78-1.78,1.54-2.61,3.56-3.91,6.4-5.34,1.66-.71,3.2-1.19,5.1-1.19,2.61-.12,5.1.71,7.47,1.9,1.19.47,1.9,1.54,2.49,2.61.36.59.59.59,1.07-.12.59-1.07,1.54-2.02,1.9-3.2,0-.24.12-.36.24-.59.36-.59,1.07-.95,1.66-.83.83.24,1.42.83,1.42,1.66,0,.36.12.83,0,1.3-.71,2.49-.59,4.98-.59,7.47,0,1.66,0,3.32-.36,4.98-.36,1.78-.24,3.68-.12,5.34,0,1.19-.36,4.62-.59,5.69-.12.36-.36.59-.71.59-.95.12-1.78.12-2.73.12-.47,0-.83-.12-.83-.71-.12-1.19-.59-4.86-.59-6.17-.12-1.3-.24-2.96-.95-4.27-.12-.24-.12-.71-.12-1.07.36-3.56-1.07-4.98-2.61-7.83-1.19-2.61-3.56-3.44-6.28-3.2h-.36c-1.54,1.07-3.44,1.19-4.74,2.61-1.54,1.54-2.49,3.32-3.08,5.34-.47,1.9,0,2.02,0,3.32-.12,3.68-.12,2.73.83,5.45.71,2.13,1.07,3.2,2.25,5.1,1.19,2.25,1.78,2.85,3.08,4.98l1.07,1.78c.47.71-.24,1.42.71,1.66.83.24,1.42,2.96,2.37,3.79.59.59.83,1.66,1.3,2.49,1.07,1.9,2.02,3.91,3.32,5.69,1.42,2.13,2.85,4.15,3.79,6.52.47,1.07.59,2.37,1.66,3.2,1.54,3.44,2.49,4.74,3.32,8.54.36,1.78.36,3.68,1.07,5.34.24.47.24,1.07.24,1.66,0,1.07.71,3.44.83,4.51.24,2.49.12,7.83,0,10.32-.12,1.07-1.3,7-1.9,7.95-1.07,2.02-2.37,2.96-3.68,4.98l-.71.71c-1.9,1.66-5.81,2.73-8.77,2.96-.47.12-1.07.12-1.66,0-2.02-.36-3.56-.47-5.57-1.19Z"/>
  </g>
  <g class="cls-3">
    <path class="cls-2" d="M451.96,153.24c-.47-.71-.12-1.66-.24-2.49-.12-.24.59-.83.71-.71,1.07.83,2.25-.36,3.44.12.24.12.47-.24.47-.59.24-.95.47-1.9.59-3.32.24-2.73,1.19-5.34,1.42-8.06.47-1.19.36-2.61.59-3.79.47-1.78.71-3.68,1.19-5.46.47-1.78.47-3.68.71-5.45.36-2.37.83-4.74,1.3-7.11.59-2.73,1.42-5.57,1.9-8.3.95-5.57,1.42-11.15,2.61-16.72.83-3.91,1.19-7.83,2.13-11.74-.12-1.9.71-3.68.71-5.57,0-.83.36-2.25.59-2.96.12-.71.71-.95,1.54-.71.36.12,1.3.24,1.66,0,1.07-.47,1.78-.24,2.96-.12.59.12,1.3.24,1.3.95,0,1.66,1.07,4.03.83,5.69-.12.59.24,1.07.36,1.54.95,3.2,1.66,6.52,2.02,9.84.12,2.13.71,4.15,1.07,6.17.71,3.44,1.66,6.88,2.37,10.44.71,3.44,1.42,7,2.37,10.43,0,1.54.47,3.08.95,4.51.36,1.3,0,2.85.71,4.15,0,2.37.47,4.74,1.78,6.76l1.07,5.1c.12.12,0,.47.12.59,1.19,2.61,1.07,5.57,2.02,8.3l.95,3.79c.12.36.36.83.59,1.07.24.36.59-.12.95-.12.95.12,1.9-.36,2.49.24.59.83.24,2.13.12,3.2-.12.47-.95,1.07-1.42.83-.95-.47-1.9-.12-2.85,0-.83.12-1.66.12-2.49-.24-1.07-.47-2.13-.36-3.2.12-.71.24-1.54.36-2.13.12-.95-.24-1.78-.71-2.61,0-.12.12-.47.12-.59,0-1.78-.83-3.68-.36-5.46-.47-.36,0-.71-.12-.83-.59-.12-.47-.36-.83-.47-1.3-.12-.71.12-1.9.71-1.9,1.19-.12,2.61-.36,3.79-.24.47.12.71-.47.59-.83-.59-2.61-1.07-5.34-1.54-7.94-.71-3.32-1.9-6.4-2.02-9.84-.12-.59-.71-1.19-1.19-1.19-.47-.12-.95,0-1.42-.12-.83-.12-1.42.71-2.13.59-.59-.12-1.19-.36-1.9-.47-.24-.12-.47-.12-.71,0-1.78.71-4.03.12-5.81.12-.71,0-.95.83-1.19,1.66-.12.59-.47,1.3-.47,1.9-.12,2.96-.95,5.81-1.42,8.66-.36,1.78-.24,4.27-.95,6.05,0,.36-.24.95-.24,1.42.12.24.12.36.24.47,1.42,0,2.73.59,4.03.12.83-.24.95-.24,1.07.83.12.59.47,1.19.12,1.9-.47.95-1.07.71-1.78.95-.24.24-.71.12-1.07.12h-2.85l-.71.12c-1.54,0-2.96,0-4.39.12-.47,0-1.19.59-1.66.24-.59-.24-1.19-.36-1.42-.83ZM470.45,125.25h5.22c.59,0,.83-.36.71-1.07,0-.47,0-.83-.12-1.3-.59-2.96-1.42-5.93-2.25-8.77-.95-3.08-1.54-6.29-2.02-9.49-.36-2.96-.95-5.81-1.66-8.54-.12-.24-.24-.36-.36-.47,0,.12-.12.24-.12.24-.12.71-.24,1.3-.24,2.02-.24.71-.24,1.54-.47,2.25-.12.59-.36,1.3-.59,1.78-.47.71.12,1.42-.12,2.13-.47,1.66-.71,3.44-.95,5.22-.12,1.66-.83,3.2-1.07,4.98-.36,2.61-.95,5.1-1.19,7.71-.12.95-.83,2.02-.36,2.85.59,1.07,1.66.36,2.49.47,1.07.12,2.13,0,3.08,0Z"/>
    <path class="cls-2" d="M500.57,153.71c-.47,0-3.08.24-3.56.12-.59-.12-.95-.47-1.19-.95-.24-.83-.24-1.78,0-2.61.24-.59.95-1.07,1.54-.95.83.24,1.54.59,2.49.36,1.42-.24,1.19-.12,1.3-1.42.36-4.98-.12-15.18.24-16.6l-.12-2.37c0-4.03-.36-7.95,0-11.98.12-1.42.24-2.96-.47-4.27.24-1.19.12-2.37,0-3.56,0-5.1,0-10.32-.12-15.53,0-.83.12-1.78.24-2.61,0-.24.24-.47.24-.59-.83-2.73-.12-5.57-.59-8.3-.12-2.96.47-4.39-.24-5.69-.12-.12.12-.59.24-.95.12-.47-.12-.95-.59-.95h-3.2c-1.66,0-1.9-1.42-1.66-2.85,0-.12.24-.36.36-.47.71-.36,1.42-.83,2.37-.83,5.46.71,8.66-.36,13.04.12,1.3,0,2.02.47,2.49,1.66.12.47.36.83.36,1.3.59,3.79,2.25,9.01,3.32,12.69.47,1.42,1.07,2.85.95,4.51,0,.36.12.83.24,1.19l2.49,7.83c.47,1.78.83,3.68,1.3,5.46.47,1.66,1.42,3.32,1.66,4.98.24,1.3.71,2.49,1.07,3.79.47,1.19.36,2.61,1.07,3.68.36.47.59,1.07.47,1.54,0,.95.47,1.78.71,2.61.71,2.73,1.78,5.34,2.49,8.06.83,2.73.71,4.74,1.78,7.35.24.47.47,2.02.71,2.37,0,.12.12.12.12.24.12-.12.24-.24.24-.36,0-.47.12-1.07.12-1.54,0-7.11-.24-15.3.12-21.22v-1.07c-.95-3.2-.47-6.52-.59-9.84-.12-2.96.12-5.93.12-8.89,0-.59.12-1.19-.12-1.66-.59-1.19-.36-2.37-.47-3.56,0-1.19.36-2.37.12-3.56-.36-1.19-.24-2.37-.24-3.68,0-1.19.12-2.37.12-3.56v-5.34c0-.71-.36-1.07-.95-1.07h-3.91c-.36,0-.83-.24-.83-.83,0-.47-.12-1.07-.12-1.66,0-.47.12-.71.71-.95.59-.12,1.19-.59,1.78-.47,1.42,0,2.85-.59,4.39-.12,1.3.36,2.73-.36,4.03.36.36.24.59.12.83,0,1.3-.47,1.19-.36,2.49-.24.36,0,.95.71.83,1.07-.24.59-.24,1.07-.12,1.66.12.71-.36,1.19-1.07,1.19-1.54.12-1.78.12-3.44.12-.36,0-.71.36-.71.83,0,.36-.12.71,0,.95.24.95.71,3.32.24,4.27-.36.83.47,1.66-.12,2.49-.36.59-.36,1.3,0,1.9.47,1.07.36,2.25.36,3.32,0,5.57-.12,11.26,0,16.84,0,.47-.12.95,0,1.42.71,2.49.59,4.98.24,7.47.47,1.9.47,3.91.47,5.81.12,1.78,0,3.44-.36,5.22,0,.71-.12,1.66.36,2.25.47.71-.47,1.3,0,1.9.59.71-.47,1.42,0,2.13.59.95-.24,1.9,0,2.85.36,1.07.12,2.25.12,3.32.12.95-.83,1.9-.12,2.85-.59,2.25-.47,4.51.12,6.76.24.83-.24,1.78,0,2.73.12.71-.12,2.02-.12,2.96-.36.71-1.07.24-1.66.59-.47.12-.83,0-1.19,0-2.96-.24-5.1-.36-7.94.12-.95.12-1.78-.36-2.02-1.19-.95-2.85-2.02-5.57-2.73-8.42-.95-3.56-1.9-7.23-3.2-10.67-.47-.83-.71-1.78-.83-2.73-.24-2.61-1.42-4.86-2.13-7.23-.95-3.08-1.66-6.17-2.61-9.13-.95-3.08-1.54-6.4-2.85-9.37-.47-1.42-.71-2.96-1.07-4.51-.12-.47-.12-1.07-.36-1.54-1.19-2.85-2.02-5.81-2.25-8.89,0-.24-.59-.59-.71-.47-.24.24-.24.36-.24.59.12.36.12.83.12,1.19-.24,2.49-.47,5.57.12,8.42.36,1.42.24,2.96,0,4.39-.12,1.66.36,5.81.36,7.47,0,7.59-.47,12.33-.12,20.04,0,1.3.12,2.73.24,4.15,0,.95.12,1.9,0,2.85-.12.71-.36,1.3,0,2.13.24.24.24.83.12,1.19-.59,2.13-.24,4.27-.36,6.28,0,.83.59,1.42,1.42,1.42h.95c.83.12,1.9-.36,2.37.47.47.47.36,1.42.47,2.13.12.95-.24,1.54-1.07,1.54l-8.89-.24Z"/>
  </g>
  <g class="cls-3">
    <path class="cls-1" d="M451.96,153.24c-.47-.71-.12-1.66-.24-2.49-.12-.24.59-.83.71-.71,1.07.83,2.25-.36,3.44.12.24.12.47-.24.47-.59.24-.95.47-1.9.59-3.32.24-2.73,1.19-5.34,1.42-8.06.47-1.19.36-2.61.59-3.79.47-1.78.71-3.68,1.19-5.46.47-1.78.47-3.68.71-5.45.36-2.37.83-4.74,1.3-7.11.59-2.73,1.42-5.57,1.9-8.3.95-5.57,1.42-11.15,2.61-16.72.83-3.91,1.19-7.83,2.13-11.74-.12-1.9.71-3.68.71-5.57,0-.83.36-2.25.59-2.96.12-.71.71-.95,1.54-.71.36.12,1.3.24,1.66,0,1.07-.47,1.78-.24,2.96-.12.59.12,1.3.24,1.3.95,0,1.66,1.07,4.03.83,5.69-.12.59.24,1.07.36,1.54.95,3.2,1.66,6.52,2.02,9.84.12,2.13.71,4.15,1.07,6.17.71,3.44,1.66,6.88,2.37,10.44.71,3.44,1.42,7,2.37,10.43,0,1.54.47,3.08.95,4.51.36,1.3,0,2.85.71,4.15,0,2.37.47,4.74,1.78,6.76l1.07,5.1c.12.12,0,.47.12.59,1.19,2.61,1.07,5.57,2.02,8.3l.95,3.79c.12.36.36.83.59,1.07.24.36.59-.12.95-.12.95.12,1.9-.36,2.49.24.59.83.24,2.13.12,3.2-.12.47-.95,1.07-1.42.83-.95-.47-1.9-.12-2.85,0-.83.12-1.66.12-2.49-.24-1.07-.47-2.13-.36-3.2.12-.71.24-1.54.36-2.13.12-.95-.24-1.78-.71-2.61,0-.12.12-.47.12-.59,0-1.78-.83-3.68-.36-5.46-.47-.36,0-.71-.12-.83-.59-.12-.47-.36-.83-.47-1.3-.12-.71.12-1.9.71-1.9,1.19-.12,2.61-.36,3.79-.24.47.12.71-.47.59-.83-.59-2.61-1.07-5.34-1.54-7.94-.71-3.32-1.9-6.4-2.02-9.84-.12-.59-.71-1.19-1.19-1.19-.47-.12-.95,0-1.42-.12-.83-.12-1.42.71-2.13.59-.59-.12-1.19-.36-1.9-.47-.24-.12-.47-.12-.71,0-1.78.71-4.03.12-5.81.12-.71,0-.95.83-1.19,1.66-.12.59-.47,1.3-.47,1.9-.12,2.96-.95,5.81-1.42,8.66-.36,1.78-.24,4.27-.95,6.05,0,.36-.24.95-.24,1.42.12.24.12.36.24.47,1.42,0,2.73.59,4.03.12.83-.24.95-.24,1.07.83.12.59.47,1.19.12,1.9-.47.95-1.07.71-1.78.95-.24.24-.71.12-1.07.12h-2.85l-.71.12c-1.54,0-2.96,0-4.39.12-.47,0-1.19.59-1.66.24-.59-.24-1.19-.36-1.42-.83ZM470.45,125.25h5.22c.59,0,.83-.36.71-1.07,0-.47,0-.83-.12-1.3-.59-2.96-1.42-5.93-2.25-8.77-.95-3.08-1.54-6.29-2.02-9.49-.36-2.96-.95-5.81-1.66-8.54-.12-.24-.24-.36-.36-.47,0,.12-.12.24-.12.24-.12.71-.24,1.3-.24,2.02-.24.71-.24,1.54-.47,2.25-.12.59-.36,1.3-.59,1.78-.47.71.12,1.42-.12,2.13-.47,1.66-.71,3.44-.95,5.22-.12,1.66-.83,3.2-1.07,4.98-.36,2.61-.95,5.1-1.19,7.71-.12.95-.83,2.02-.36,2.85.59,1.07,1.66.36,2.49.47,1.07.12,2.13,0,3.08,0Z"/>
    <path class="cls-1" d="M500.57,153.71c-.47,0-3.08.24-3.56.12-.59-.12-.95-.47-1.19-.95-.24-.83-.24-1.78,0-2.61.24-.59.95-1.07,1.54-.95.83.24,1.54.59,2.49.36,1.42-.24,1.19-.12,1.3-1.42.36-4.98-.12-15.18.24-16.6l-.12-2.37c0-4.03-.36-7.95,0-11.98.12-1.42.24-2.96-.47-4.27.24-1.19.12-2.37,0-3.56,0-5.1,0-10.32-.12-15.53,0-.83.12-1.78.24-2.61,0-.24.24-.47.24-.59-.83-2.73-.12-5.57-.59-8.3-.12-2.96.47-4.39-.24-5.69-.12-.12.12-.59.24-.95.12-.47-.12-.95-.59-.95h-3.2c-1.66,0-1.9-1.42-1.66-2.85,0-.12.24-.36.36-.47.71-.36,1.42-.83,2.37-.83,5.46.71,8.66-.36,13.04.12,1.3,0,2.02.47,2.49,1.66.12.47.36.83.36,1.3.59,3.79,2.25,9.01,3.32,12.69.47,1.42,1.07,2.85.95,4.51,0,.36.12.83.24,1.19l2.49,7.83c.47,1.78.83,3.68,1.3,5.46.47,1.66,1.42,3.32,1.66,4.98.24,1.3.71,2.49,1.07,3.79.47,1.19.36,2.61,1.07,3.68.36.47.59,1.07.47,1.54,0,.95.47,1.78.71,2.61.71,2.73,1.78,5.34,2.49,8.06.83,2.73.71,4.74,1.78,7.35.24.47.47,2.02.71,2.37,0,.12.12.12.12.24.12-.12.24-.24.24-.36,0-.47.12-1.07.12-1.54,0-7.11-.24-15.3.12-21.22v-1.07c-.95-3.2-.47-6.52-.59-9.84-.12-2.96.12-5.93.12-8.89,0-.59.12-1.19-.12-1.66-.59-1.19-.36-2.37-.47-3.56,0-1.19.36-2.37.12-3.56-.36-1.19-.24-2.37-.24-3.68,0-1.19.12-2.37.12-3.56v-5.34c0-.71-.36-1.07-.95-1.07h-3.91c-.36,0-.83-.24-.83-.83,0-.47-.12-1.07-.12-1.66,0-.47.12-.71.71-.95.59-.12,1.19-.59,1.78-.47,1.42,0,2.85-.59,4.39-.12,1.3.36,2.73-.36,4.03.36.36.24.59.12.83,0,1.3-.47,1.19-.36,2.49-.24.36,0,.95.71.83,1.07-.24.59-.24,1.07-.12,1.66.12.71-.36,1.19-1.07,1.19-1.54.12-1.78.12-3.44.12-.36,0-.71.36-.71.83,0,.36-.12.71,0,.95.24.95.71,3.32.24,4.27-.36.83.47,1.66-.12,2.49-.36.59-.36,1.3,0,1.9.47,1.07.36,2.25.36,3.32,0,5.57-.12,11.26,0,16.84,0,.47-.12.95,0,1.42.71,2.49.59,4.98.24,7.47.47,1.9.47,3.91.47,5.81.12,1.78,0,3.44-.36,5.22,0,.71-.12,1.66.36,2.25.47.71-.47,1.3,0,1.9.59.71-.47,1.42,0,2.13.59.95-.24,1.9,0,2.85.36,1.07.12,2.25.12,3.32.12.95-.83,1.9-.12,2.85-.59,2.25-.47,4.51.12,6.76.24.83-.24,1.78,0,2.73.12.71-.12,2.02-.12,2.96-.36.71-1.07.24-1.66.59-.47.12-.83,0-1.19,0-2.96-.24-5.1-.36-7.94.12-.95.12-1.78-.36-2.02-1.19-.95-2.85-2.02-5.57-2.73-8.42-.95-3.56-1.9-7.23-3.2-10.67-.47-.83-.71-1.78-.83-2.73-.24-2.61-1.42-4.86-2.13-7.23-.95-3.08-1.66-6.17-2.61-9.13-.95-3.08-1.54-6.4-2.85-9.37-.47-1.42-.71-2.96-1.07-4.51-.12-.47-.12-1.07-.36-1.54-1.19-2.85-2.02-5.81-2.25-8.89,0-.24-.59-.59-.71-.47-.24.24-.24.36-.24.59.12.36.12.83.12,1.19-.24,2.49-.47,5.57.12,8.42.36,1.42.24,2.96,0,4.39-.12,1.66.36,5.81.36,7.47,0,7.59-.47,12.33-.12,20.04,0,1.3.12,2.73.24,4.15,0,.95.12,1.9,0,2.85-.12.71-.36,1.3,0,2.13.24.24.24.83.12,1.19-.59,2.13-.24,4.27-.36,6.28,0,.83.59,1.42,1.42,1.42h.95c.83.12,1.9-.36,2.37.47.47.47.36,1.42.47,2.13.12.95-.24,1.54-1.07,1.54l-8.89-.24Z"/>
  </g>
  <g class="cls-3">
    <path class="cls-2" d="M543.13,150.63c0-.71.24-.95.95-.95,1.07-.12,2.25-.12,3.32-.24.71,0,1.66.36,2.13-.36.36-.47.12-1.3.24-1.9.12-.95.83-1.78,0-2.85-.24-.36.12-1.07.24-1.54.24-.47.36-.95.24-1.3-.95-1.9-.47-3.91-.47-5.93-.12-4.98-.12-9.96-.12-14.94v-27.63c-.12-1.3.12-2.61-.47-3.91-.24-.59-.24-1.42,0-2.02.71-1.9.36-3.91.36-5.81.12-1.78.12-3.56,0-5.34,0-.47-.24-.83-.83-.83-.95-.12-1.9,0-2.85.47-.71.24-1.19-.12-1.66-.83-.36-.59-.59-1.3-.47-2.13.12-.47.24-.83.83-.95,1.3-.12,2.61.12,3.79-.47,1.07.71,2.13-.24,3.08-.24,1.19,0,2.25.12,3.32.12,1.19,0,2.25-.12,3.32-.12.47,0,1.07.12,1.3,0,1.78-.95,3.2-.12,4.74.36,2.49.59,4.51.12,6.64,1.42.24.12,2.49.47,2.73.71,3.56,3.2,5.46,1.3,7,6.17.12.36.83.95.95,1.3,2.02,3.08,6.05,15.42,5.93,19.68v.59c-.83,3.08.47,6.05.36,9.13-.12,1.19.24,2.49-.24,3.56-.36,1.19.47,2.49-.36,3.56-.12.12-.12.59-.12.95-.12,1.66-.36,3.56-.83,5.22-.47,1.54,0,3.32-.71,4.86-.12.12-1.42,5.45-1.42,5.69-.47,5.81-4.74,9.49-6.88,13.16-.71,1.19-4.03,3.08-5.57,4.03-1.3,1.07-1.78.12-3.68.83-.47.24-1.07-.24-1.54.12-1.19.83-2.49.71-4.03.71-.83-.24-1.78-.59-2.49-.47-.83.12-1.42.24-2.25.12-.95-.24-1.9.47-2.85.24-1.66-.24-3.2.59-4.86,0-.36-.12-.83,0-1.19.24-.95.47-2.02.36-2.96.36-1.9,0-2.73-.83-2.61-2.85ZM567.8,147.43c.36-.59.95-1.19,1.42-1.78,1.07-1.54,2.37-5.1,3.08-6.76,1.19-2.85.59-4.86,1.66-7.83.12-.36.36-2.73.36-3.08,0-2.85,0-3.44-.24-6.28,0-.12,0-.47.12-.59.71-1.54.59-3.32.47-4.86,0-1.78.71-3.44.59-5.22v-6.05l-.47-6.52c0-.47.59-.95.36-1.42-.47-1.07-1.07-3.44-1.19-4.51-.12-1.19-.47-2.37-.59-3.56-.24-2.13.12-3.68-.83-5.57-.95-1.78-1.42-4.62-2.61-6.28-1.78-2.61-3.44-1.9-6.17-2.73-.36,0-.59.24-.71.59v1.3c0,8.77-.12,18.26-.12,27.04,0,1.19-.24,2.49.12,3.68.59,1.66.36,3.44.47,5.22.12,1.54-.36,2.96,0,4.51.24,1.54,0,3.08,0,4.62,0,.83.12,1.66-.12,2.37-.59,1.42-.36,2.96-.47,4.51v6.64c.12,2.13-.24,4.15.59,6.29.12.47,0,1.07,0,1.54v4.74c0,.24.12.59.12.95.12.24.24.36.47.24,1.3-.59,2.85.12,3.68-1.19Z"/>
  </g>
  <g class="cls-3">
    <path class="cls-1" d="M543.13,150.63c0-.71.24-.95.95-.95,1.07-.12,2.25-.12,3.32-.24.71,0,1.66.36,2.13-.36.36-.47.12-1.3.24-1.9.12-.95.83-1.78,0-2.85-.24-.36.12-1.07.24-1.54.24-.47.36-.95.24-1.3-.95-1.9-.47-3.91-.47-5.93-.12-4.98-.12-9.96-.12-14.94v-27.63c-.12-1.3.12-2.61-.47-3.91-.24-.59-.24-1.42,0-2.02.71-1.9.36-3.91.36-5.81.12-1.78.12-3.56,0-5.34,0-.47-.24-.83-.83-.83-.95-.12-1.9,0-2.85.47-.71.24-1.19-.12-1.66-.83-.36-.59-.59-1.3-.47-2.13.12-.47.24-.83.83-.95,1.3-.12,2.61.12,3.79-.47,1.07.71,2.13-.24,3.08-.24,1.19,0,2.25.12,3.32.12,1.19,0,2.25-.12,3.32-.12.47,0,1.07.12,1.3,0,1.78-.95,3.2-.12,4.74.36,2.49.59,4.51.12,6.64,1.42.24.12,2.49.47,2.73.71,3.56,3.2,5.46,1.3,7,6.17.12.36.83.95.95,1.3,2.02,3.08,6.05,15.42,5.93,19.68v.59c-.83,3.08.47,6.05.36,9.13-.12,1.19.24,2.49-.24,3.56-.36,1.19.47,2.49-.36,3.56-.12.12-.12.59-.12.95-.12,1.66-.36,3.56-.83,5.22-.47,1.54,0,3.32-.71,4.86-.12.12-1.42,5.45-1.42,5.69-.47,5.81-4.74,9.49-6.88,13.16-.71,1.19-4.03,3.08-5.57,4.03-1.3,1.07-1.78.12-3.68.83-.47.24-1.07-.24-1.54.12-1.19.83-2.49.71-4.03.71-.83-.24-1.78-.59-2.49-.47-.83.12-1.42.24-2.25.12-.95-.24-1.9.47-2.85.24-1.66-.24-3.2.59-4.86,0-.36-.12-.83,0-1.19.24-.95.47-2.02.36-2.96.36-1.9,0-2.73-.83-2.61-2.85ZM567.8,147.43c.36-.59.95-1.19,1.42-1.78,1.07-1.54,2.37-5.1,3.08-6.76,1.19-2.85.59-4.86,1.66-7.83.12-.36.36-2.73.36-3.08,0-2.85,0-3.44-.24-6.28,0-.12,0-.47.12-.59.71-1.54.59-3.32.47-4.86,0-1.78.71-3.44.59-5.22v-6.05l-.47-6.52c0-.47.59-.95.36-1.42-.47-1.07-1.07-3.44-1.19-4.51-.12-1.19-.47-2.37-.59-3.56-.24-2.13.12-3.68-.83-5.57-.95-1.78-1.42-4.62-2.61-6.28-1.78-2.61-3.44-1.9-6.17-2.73-.36,0-.59.24-.71.59v1.3c0,8.77-.12,18.26-.12,27.04,0,1.19-.24,2.49.12,3.68.59,1.66.36,3.44.47,5.22.12,1.54-.36,2.96,0,4.51.24,1.54,0,3.08,0,4.62,0,.83.12,1.66-.12,2.37-.59,1.42-.36,2.96-.47,4.51v6.64c.12,2.13-.24,4.15.59,6.29.12.47,0,1.07,0,1.54v4.74c0,.24.12.59.12.95.12.24.24.36.47.24,1.3-.59,2.85.12,3.68-1.19Z"/>
  </g>
  <g class="cls-3">
    <path class="cls-2" d="M605.26,152.41c-.36-2.96-1.3-6.76-2.02-9.6-.36-1.9-.59-3.68-.83-5.57l-.47-1.9-1.42-8.42c-.24-1.78-.59-3.68-.95-5.45-.47-2.13-.95-4.27-1.07-6.52,0-1.78-.83-3.32-.71-5.22-.71-1.3-.36-2.73-.59-4.15-.36-1.3-.47-2.61-.71-3.91-.24-1.66-.47-3.2-.59-4.86-.24-1.66-.59-3.2-.59-4.86-.12-1.07-.47-2.13-.71-3.2-.36-2.37-.47-4.86-1.3-7.11-.47-1.42-.59-2.73-.59-4.27-.12-1.66-.36-1.78-2.25-2.02-.83-.12-1.66,0-2.49-.47-.59-.36-1.07-.59-1.07-1.42-.12-2.37.36-2.85,2.73-2.85.71,0,1.3.12,1.9.12h.71c1.3-.12,2.61,0,3.79-.59,1.07.59,2.25.59,3.44.47h3.79c.71,0,1.42,0,2.02.12.83.24,1.54.36,2.49.12.47-.24,1.19-.24,1.78.12s1.07.24,1.54-.12c.47-.24.71,0,1.07.36.95,1.3.24,2.49-.24,3.68-.12.24-.47.36-.83.36-1.3.12-2.61.12-3.79.12h-1.3c-.59,0-.71.12-.71.71.12,1.42.36,2.85.47,4.27.12,1.3.47,2.49.71,3.79.12.59.36,1.07.36,1.66.12,1.3,0,2.73.36,3.91.36,1.19.36,2.37.36,3.56.12.95,0,2.02.47,2.96.24.36.24,1.07.24,1.54.12,3.68.83,7.12,1.66,10.67.36,1.54.24,3.2.83,4.86.47,1.42.83,3.08.83,4.74,0,1.3.36,4.03.59,5.34,0,.12.24.24.24.24.12,0,.36-1.54.36-1.66.47-2.96.71-5.93,1.42-8.77.71-3.2.59-6.52,1.66-9.72.47-1.3,0-2.85.71-4.15-.24-2.37.83-4.51.71-6.88-.12-1.3.59-2.49.71-3.79.47-2.37.71-4.74,1.19-7.11.24-1.07.95-1.66,1.78-1.3,1.07.47,2.13,0,3.2.12.83,0,1.3-.12,2.13,0,.47,0,.83.36.95.83.36,3.08,1.07,6.64,1.9,9.72.36,1.42.47,2.85.71,4.27.59,3.91,1.07,7,2.13,10.91.47,1.42.83,3.32,1.07,4.86.47,2.49,1.3,10.08,2.13,12.45l.24.24c0-.12.24-.24.24-.36,0-3.08,1.42-10.91,1.66-13.87.59-3.2,1.07-6.4,1.42-9.72.47-3.91,1.07-7.83,2.02-11.62.12-.47.36-1.07.36-1.54-.12-1.66.36-3.32.95-4.86,0-2.73.71-4.15.59-6.05,0-.24-.47-.47-.71-.47h-4.86c-.47,0-.71-.36-.71-.83,0-.59-.24-1.07-.47-1.54-.24-.24-.12-.71.24-.83.59-.36,1.19-.95,2.02-.95,1.9.12,3.79.36,5.69-.47,2.61.71,5.1-.36,7.71.36.36.12.71-.24,1.07.24.36.47.47,1.07.36,1.54-.24.59-.59,1.19-.95,1.78-.24.36-.59.59-1.07.59-.71,0-1.54,0-2.25-.24-.47-.12-.71,0-.95.47-.59,1.66-1.3,3.56-1.3,5.34-.12,2.73-.47,5.22-1.19,7.83-.12.59-.47,1.19-.59,1.78,0,2.96.12,6.05-1.19,8.78,0,2.13-.71,4.15-.95,6.17-.12,2.13-.59,4.15-.83,6.29-.24,1.9-.59,3.79-.59,5.81-.12,1.42-.71,2.73-.59,4.27,0,1.3.12,2.61-.59,3.79.24,2.37-.71,4.62-.71,6.88,0,.95-.47,2.02-.47,2.96-.12,1.3-.47,2.61-.71,3.79-.24,1.3,0,2.73-.59,3.91-.12.47-.12,1.19,0,1.66.12,2.37-.71,4.86-1.07,7.23,0,.36,0,.83-.24,1.19-.36.71-.95,1.19-1.78,1.07-1.42-.24-2.49.24-3.79,0-.59-.24-1.19-.71-1.19-1.42-.36-3.08-1.42-7-2.25-9.96,0-4.03-1.9-7.59-2.13-11.62-1.42-3.44-1.3-7.35-2.37-10.91-.36-1.07-.12-2.37-.47-3.56-.59-2.37-1.07-4.86-1.66-7.35,0-.12-.24-.24-.36-.24,0,0-.12.12-.12.24-.71,3.08-.95,6.28-1.9,9.25-.12,3.08-.83,6.05-1.78,9.01-.24.36-.12,1.07-.12,1.54,0,1.78-.59,3.44-.83,5.22-.36,1.66-.59,3.44-1.07,5.1-.47,1.54-.47,3.2-.83,4.86-.47,1.9-.47,3.91-.71,5.81-.12,1.54-.36,2.13-.47,2.61-.36,1.07-.59,1.3-1.66,1.42-1.66.12-2.73.24-4.27,0-.47-.12-.95-1.07-1.07-1.54Z"/>
  </g>
  <g class="cls-3">
    <path class="cls-1" d="M605.26,152.41c-.36-2.96-1.3-6.76-2.02-9.6-.36-1.9-.59-3.68-.83-5.57l-.47-1.9-1.42-8.42c-.24-1.78-.59-3.68-.95-5.45-.47-2.13-.95-4.27-1.07-6.52,0-1.78-.83-3.32-.71-5.22-.71-1.3-.36-2.73-.59-4.15-.36-1.3-.47-2.61-.71-3.91-.24-1.66-.47-3.2-.59-4.86-.24-1.66-.59-3.2-.59-4.86-.12-1.07-.47-2.13-.71-3.2-.36-2.37-.47-4.86-1.3-7.11-.47-1.42-.59-2.73-.59-4.27-.12-1.66-.36-1.78-2.25-2.02-.83-.12-1.66,0-2.49-.47-.59-.36-1.07-.59-1.07-1.42-.12-2.37.36-2.85,2.73-2.85.71,0,1.3.12,1.9.12h.71c1.3-.12,2.61,0,3.79-.59,1.07.59,2.25.59,3.44.47h3.79c.71,0,1.42,0,2.02.12.83.24,1.54.36,2.49.12.47-.24,1.19-.24,1.78.12s1.07.24,1.54-.12c.47-.24.71,0,1.07.36.95,1.3.24,2.49-.24,3.68-.12.24-.47.36-.83.36-1.3.12-2.61.12-3.79.12h-1.3c-.59,0-.71.12-.71.71.12,1.42.36,2.85.47,4.27.12,1.3.47,2.49.71,3.79.12.59.36,1.07.36,1.66.12,1.3,0,2.73.36,3.91.36,1.19.36,2.37.36,3.56.12.95,0,2.02.47,2.96.24.36.24,1.07.24,1.54.12,3.68.83,7.12,1.66,10.67.36,1.54.24,3.2.83,4.86.47,1.42.83,3.08.83,4.74,0,1.3.36,4.03.59,5.34,0,.12.24.24.24.24.12,0,.36-1.54.36-1.66.47-2.96.71-5.93,1.42-8.77.71-3.2.59-6.52,1.66-9.72.47-1.3,0-2.85.71-4.15-.24-2.37.83-4.51.71-6.88-.12-1.3.59-2.49.71-3.79.47-2.37.71-4.74,1.19-7.11.24-1.07.95-1.66,1.78-1.3,1.07.47,2.13,0,3.2.12.83,0,1.3-.12,2.13,0,.47,0,.83.36.95.83.36,3.08,1.07,6.64,1.9,9.72.36,1.42.47,2.85.71,4.27.59,3.91,1.07,7,2.13,10.91.47,1.42.83,3.32,1.07,4.86.47,2.49,1.3,10.08,2.13,12.45l.24.24c0-.12.24-.24.24-.36,0-3.08,1.42-10.91,1.66-13.87.59-3.2,1.07-6.4,1.42-9.72.47-3.91,1.07-7.83,2.02-11.62.12-.47.36-1.07.36-1.54-.12-1.66.36-3.32.95-4.86,0-2.73.71-4.15.59-6.05,0-.24-.47-.47-.71-.47h-4.86c-.47,0-.71-.36-.71-.83,0-.59-.24-1.07-.47-1.54-.24-.24-.12-.71.24-.83.59-.36,1.19-.95,2.02-.95,1.9.12,3.79.36,5.69-.47,2.61.71,5.1-.36,7.71.36.36.12.71-.24,1.07.24.36.47.47,1.07.36,1.54-.24.59-.59,1.19-.95,1.78-.24.36-.59.59-1.07.59-.71,0-1.54,0-2.25-.24-.47-.12-.71,0-.95.47-.59,1.66-1.3,3.56-1.3,5.34-.12,2.73-.47,5.22-1.19,7.83-.12.59-.47,1.19-.59,1.78,0,2.96.12,6.05-1.19,8.78,0,2.13-.71,4.15-.95,6.17-.12,2.13-.59,4.15-.83,6.29-.24,1.9-.59,3.79-.59,5.81-.12,1.42-.71,2.73-.59,4.27,0,1.3.12,2.61-.59,3.79.24,2.37-.71,4.62-.71,6.88,0,.95-.47,2.02-.47,2.96-.12,1.3-.47,2.61-.71,3.79-.24,1.3,0,2.73-.59,3.91-.12.47-.12,1.19,0,1.66.12,2.37-.71,4.86-1.07,7.23,0,.36,0,.83-.24,1.19-.36.71-.95,1.19-1.78,1.07-1.42-.24-2.49.24-3.79,0-.59-.24-1.19-.71-1.19-1.42-.36-3.08-1.42-7-2.25-9.96,0-4.03-1.9-7.59-2.13-11.62-1.42-3.44-1.3-7.35-2.37-10.91-.36-1.07-.12-2.37-.47-3.56-.59-2.37-1.07-4.86-1.66-7.35,0-.12-.24-.24-.36-.24,0,0-.12.12-.12.24-.71,3.08-.95,6.28-1.9,9.25-.12,3.08-.83,6.05-1.78,9.01-.24.36-.12,1.07-.12,1.54,0,1.78-.59,3.44-.83,5.22-.36,1.66-.59,3.44-1.07,5.1-.47,1.54-.47,3.2-.83,4.86-.47,1.9-.47,3.91-.71,5.81-.12,1.54-.36,2.13-.47,2.61-.36,1.07-.59,1.3-1.66,1.42-1.66.12-2.73.24-4.27,0-.47-.12-.95-1.07-1.07-1.54Z"/>
  </g>
  <g class="cls-3">
    <path class="cls-2" d="M651.86,153.12c-.24-.47-.47-1.07-.59-1.54-.24-.83.12-1.42.83-1.42,1.66-.12,3.32-.12,4.98-.12.71,0,1.07-.59,1.07-1.3-.12-1.19-.36-2.49-.36-3.68,0-2.25-.24-5.93.36-7.12-.12-.95-.47-4.86-.36-7.35.12-1.3,0-2.61,0-3.79,0-1.9,0-3.68.47-5.46-.59-1.3-.36-2.61-.36-3.91v-13.16c0-1.07-.71-4.27,0-4.39.59-.12-.12-3.56-.12-5.34v-9.6c0-.71.59-1.3.24-2.13-.36-.83-.12-1.78-.12-2.61v-2.37c0-.71-.12-1.54-.12-2.25-.12-.95-.36-1.19-1.3-1.19-1.19,0-2.37.12-3.56.12-.47,0-.95-.24-1.07-.71-.24-.59-.47-1.07-.59-1.54-.24-.83.36-1.66,1.19-1.66.95-.12,2.02-.12,2.96-.24h6.64c2.25,0,4.62.12,7,0,1.07,0,2.25.47,3.32,0,.59-.36,2.02,0,2.73,0,1.19.12,1.3.71,1.3,2.02.12.83-.24,1.78-.95,1.78-1.42.24-2.73.12-4.03.24-.59.12-.83.47-.83.95.24,2.13-.47,4.39.47,6.52.12.47,0,1.07,0,1.66,0,4.39-.59,8.77,0,13.16.12.95-.47,1.78,0,2.61.12.36.12.95,0,1.3-.59,1.07.24,2.13.12,3.2-.59,5.22.12,13.16-.47,15.53,0,1.07.47,2.25.47,3.32s.24,1.42-.47,3.08c.36,1.42.47,4.03.47,6.05,0,3.08.47,8.3,0,9.13.36,1.19-.12,3.79-.12,5.69,0,.71,0,1.54.12,2.25,0,.36.24.59.71.59h4.27c1.07.12,1.66,1.07,1.42,2.13,0,.24-.12.47-.24.59-.47,1.19-.59,1.3-1.66,1.3-2.85,0-5.69,0-8.54.12-1.07,0-2.02-.24-2.96.24-.12.12-.47.24-.59.12-1.78-.83-3.56-.36-5.22-.36-1.07-.12-2.02-.12-2.96.36-.59.24-1.3.12-2.02.12s-1.19-.36-1.54-.95Z"/>
  </g>
  <g class="cls-3">
    <path class="cls-1" d="M651.86,153.12c-.24-.47-.47-1.07-.59-1.54-.24-.83.12-1.42.83-1.42,1.66-.12,3.32-.12,4.98-.12.71,0,1.07-.59,1.07-1.3-.12-1.19-.36-2.49-.36-3.68,0-2.25-.24-5.93.36-7.12-.12-.95-.47-4.86-.36-7.35.12-1.3,0-2.61,0-3.79,0-1.9,0-3.68.47-5.46-.59-1.3-.36-2.61-.36-3.91v-13.16c0-1.07-.71-4.27,0-4.39.59-.12-.12-3.56-.12-5.34v-9.6c0-.71.59-1.3.24-2.13-.36-.83-.12-1.78-.12-2.61v-2.37c0-.71-.12-1.54-.12-2.25-.12-.95-.36-1.19-1.3-1.19-1.19,0-2.37.12-3.56.12-.47,0-.95-.24-1.07-.71-.24-.59-.47-1.07-.59-1.54-.24-.83.36-1.66,1.19-1.66.95-.12,2.02-.12,2.96-.24h6.64c2.25,0,4.62.12,7,0,1.07,0,2.25.47,3.32,0,.59-.36,2.02,0,2.73,0,1.19.12,1.3.71,1.3,2.02.12.83-.24,1.78-.95,1.78-1.42.24-2.73.12-4.03.24-.59.12-.83.47-.83.95.24,2.13-.47,4.39.47,6.52.12.47,0,1.07,0,1.66,0,4.39-.59,8.77,0,13.16.12.95-.47,1.78,0,2.61.12.36.12.95,0,1.3-.59,1.07.24,2.13.12,3.2-.59,5.22.12,13.16-.47,15.53,0,1.07.47,2.25.47,3.32s.24,1.42-.47,3.08c.36,1.42.47,4.03.47,6.05,0,3.08.47,8.3,0,9.13.36,1.19-.12,3.79-.12,5.69,0,.71,0,1.54.12,2.25,0,.36.24.59.71.59h4.27c1.07.12,1.66,1.07,1.42,2.13,0,.24-.12.47-.24.59-.47,1.19-.59,1.3-1.66,1.3-2.85,0-5.69,0-8.54.12-1.07,0-2.02-.24-2.96.24-.12.12-.47.24-.59.12-1.78-.83-3.56-.36-5.22-.36-1.07-.12-2.02-.12-2.96.36-.59.24-1.3.12-2.02.12s-1.19-.36-1.54-.95Z"/>
  </g>
  <g class="cls-3">
    <path class="cls-2" d="M699.29,154.42c-1.78-.47-3.32-1.66-5.22-1.78-.24,0-.47-.12-.59-.24-2.49-1.9-4.98-3.79-6.17-6.76-.71-2.02-1.54-4.03-2.25-6.05-.47-1.66-.71-3.44-1.66-5.1,0-.12-.12-.36-.12-.59.12-1.78-.47-3.44-.71-5.22-.24-1.42-.59-2.73-.71-4.15-.12-1.3-.36-2.73-.59-4.15-.36-1.66-.24-3.32-.24-4.98-.12-.71-.12-1.54-.12-2.25h.12c0-1.54-.12-2.96-.12-4.39s-.12-2.85.47-4.27c.24-.47,0-1.3,0-1.9.12-1.66.24-3.2.59-4.74.36-1.9,1.07-3.68.71-5.57,0-.24.12-.59.24-.95,1.19-3.08,1.78-6.29,3.2-9.25.12-.47-.24-.83,0-1.19,1.07-1.42,1.42-3.2,2.37-4.51,1.78-2.49,4.03-4.39,6.52-5.93,1.9-.24,3.79-1.42,5.81-.59.59.24,1.3.36,1.9.36,1.66,0,3.08.71,4.27,1.78,1.19,1.07,2.37,2.25,3.2,3.79.12.24.36.24.47,0,.24-1.19.36-2.37.71-3.56.12-.47.24-1.07.47-1.54.24-.59,3.2-1.3,3.91-.83.36.12.71.47.71.95-.12.59-.59,1.07-.12,1.54-.71,2.02-.36,3.91-.36,5.81,0,1.54.12,3.08-.36,4.51-.36.83,0,1.78,0,2.73-.12.83.47,1.54,0,2.49-.47.83.47,1.66.47,2.61,0,1.3,0,2.61-.12,3.91,0,.47,0,.83.24,1.19.12.24.12.71,0,.95-.83,1.3-2.85,1.9-4.15,1.3l-.36-.47c-.36-.71-.47-1.42-.36-2.25.12-2.02-.47-3.91-.59-5.93-.36-1.78-.95-3.2-1.19-5.1-.36-2.96-2.25-5.69-3.56-8.18-.59-1.19-2.25-1.54-3.32-.59-1.3,1.19-2.61,2.25-3.08,4.03l-2.13,6.52c-.12.24-.24.36-.24.59-.24,2.61-.59,5.22-1.19,7.83.36,1.19.24,2.49,0,3.68-.24,1.3-.12,2.49-.12,3.79v3.68c0,1.3.12,2.73.12,4.03,0,3.44-.59,5.57-.47,9.01,0,2.73.47,6.64.83,9.37.59,3.91.47,7.95,1.9,11.74-.24,1.9,1.07,3.32,1.78,4.86.47,1.19,1.3,2.25,2.49,2.96,1.78.95,3.44.83,4.62-.59.95-1.3,1.66-2.61,2.13-4.03,1.07-2.73,1.78-5.34,2.49-8.18l.36-2.85.24-2.02c.12-.95.59-1.3,1.78-1.42h2.02c.71.12.95.59.83,1.3-.24.59-.12,1.66-.36,2.25-.12.59-.47,1.07-.47,1.54.24,2.37-.71,4.39-1.19,6.4-.47,1.78-1.07,3.32-1.66,4.98-1.3,3.32-3.79,5.69-6.64,7.83-1.07.83-2.49,1.19-3.91,1.54-.47.12-1.07.12-1.54.36-.71.24-1.3.12-2.02-.12Z"/>
    <path class="cls-2" d="M735.45,153.59h-6.64c-.59,0-1.19.12-1.66,0-.71-.36-1.42-.36-2.13-.12-.47.24-1.19.12-1.66.12-.71.12-1.54.36-2.13-.47-.71-.83-.59-1.78-.36-2.85.12-.24.47-.47.71-.47,1.42-.12,2.73-.12,4.03-.12.95,0,1.19-.24,1.19-1.19.59-5.46,0-5.57,0-11.03,0-2.49.59-8.54.12-12.81.47-2.85.47-5.69.36-8.54,0-.47,0-1.07-.24-1.54-.36-.83-.24-1.54.12-2.25.24-.47.24-1.07,0-1.66-.12-.47-.12-.83.24-1.19.59-.47.36-.71-.24-1.07-.24-.24-.36-.83-.36-1.19v-10.32c0-3.08,0-6.17-.12-9.37,0-.83.12-1.66-.36-2.49-.36-.71-.24-1.42,0-2.02.83-2.49.12-5.22.24-7.71,0-.36-.71-.71-.95-.59-.83.47-1.78-.36-2.61-.24-2.02.24-2.25,0-2.25-1.9,0-1.3.47-2.02,1.54-2.13,1.19-.12,2.25.47,3.32.12.47-.12,1.07,0,1.54.12.59.12,1.07.36,1.54.12.71-.36,1.3-.24,2.02-.12,1.54.47,5.45.47,7.11.24.83-.83,1.78.36,2.49-.24.71.36,1.54.36,2.25.36,1.78-.24,1.66,0,1.78,1.54,0,2.13-.12,2.13-1.78,2.13-.71-.12-1.19,0-1.9-.12-.12,0-.47.24-.47.36-.12,1.3-.12,2.61.12,3.91.36,3.44.71,7.23-.12,10.67,0,.24,0,.71.12.95.36.59-.24,1.19.12,1.78.47.71-.12,1.54-.24,2.25-.12.59.47,1.19,0,1.78-.12,2.02-.12,4.03-.24,6.05-.12,2.25-.47,2.85.36,2.85,1.19.12,4.39-.59,5.57-.12.83.24,2.25.12,3.2,0,.83-.12,1.54.36,2.25-.12.71-.59.24-1.66.36-2.61,0-2.85-.12-6.29,0-9.13,0-1.07,0-2.13.12-3.32.24-.95-.12-2.02-.12-3.08-.12-1.19,0-2.25,0-3.32l-.12-4.03v-3.32c0-1.3-.24-2.02-1.54-1.9-1.3.12-1.78-.36-2.02-1.42-.12-.36,0-.83,0-1.3,0-.36-.12-.59.47-.71.47-.12,1.07-.24,1.54-.24,1.3-.12,2.25.12,3.44,0,1.07-.12,10.43.59,11.5.24,1.07-.36,2.37-.24,3.68-.24.59,0,1.19.24,1.19,1.19,0,.12-.12.24-.12.36.12,2.02-.24,2.49-2.02,2.49-.95.12-2.02-.12-2.85.59-.36.24-.59.24-.71.83-.36,2.13-.24,3.56.12,6.4.12.83.24,1.78.24,2.61v8.66c0,.71,0,1.54-.24,2.25-.12.36-.12.83,0,1.19.47,5.69-.24,10.67.36,16.84,0,1.3.12,2.49,0,3.68,0,1.07.83,2.13.12,3.2.59,1.19.47,2.25-.12,3.44-.12.47.36,7.59.36,8.06-1.19,4.74-.36,8.78-.36,16.13,0,.83.36,1.19,1.19,1.19.95-.12,1.42-.12,2.25-.12.59-.12,1.19,0,1.54.12.83.47.47,1.42.59,2.13,0,1.07-.59,1.42-1.78,1.66-.59.12-6.52.24-7.23.24-2.85,0-6.76-.59-11.26,0-.59,0-.95-.36-1.07-.95,0-.36-.12-.71-.24-1.07-.24-1.07.36-1.9,1.42-2.02h1.07c.95,0,1.19-.24,1.07-1.19,0-1.07.24-2.13-.36-3.79.71-.95.12-1.9.12-2.85-.12-1.19.12-2.25-.24-3.44-.24-1.19,0-2.49,0-3.68v-3.68c0-.59.12-1.3.24-1.9.12-.47.36-.83.24-1.3-.47-2.02.12-4.15,0-6.17,0-2.02.12-4.03,0-5.93-.12-2.02-.71-3.32-.59-5.34.12-1.07-.24-1.3-1.3-.95-.83.24-1.54-.36-2.37-.36-2.37,0-5.1,0-7.47.12-.71,0-.95.36-.83,1.07,0,.24.24.47.12.59-.36,1.07-.36,2.25-.24,3.32.12.95,0,2.13.36,3.08.36,1.42-.59,2.73,0,4.15-.71,2.37-.24,4.74,0,7.11.24,2.73.47,5.45-.24,8.18-.12.47-.12.95,0,1.3.47,1.07.36,2.13.36,3.32,0,2.49,0,4.98.12,7.59,0,.47.36.71.83.71h1.3c1.54.24,2.49,2.02,1.66,3.56,0,.12-.24.36-.47.36-.59,0-1.07.12-1.66.12h-6.28v-.12Z"/>
  </g>
  <g class="cls-3">
    <path class="cls-1" d="M699.29,154.42c-1.78-.47-3.32-1.66-5.22-1.78-.24,0-.47-.12-.59-.24-2.49-1.9-4.98-3.79-6.17-6.76-.71-2.02-1.54-4.03-2.25-6.05-.47-1.66-.71-3.44-1.66-5.1,0-.12-.12-.36-.12-.59.12-1.78-.47-3.44-.71-5.22-.24-1.42-.59-2.73-.71-4.15-.12-1.3-.36-2.73-.59-4.15-.36-1.66-.24-3.32-.24-4.98-.12-.71-.12-1.54-.12-2.25h.12c0-1.54-.12-2.96-.12-4.39s-.12-2.85.47-4.27c.24-.47,0-1.3,0-1.9.12-1.66.24-3.2.59-4.74.36-1.9,1.07-3.68.71-5.57,0-.24.12-.59.24-.95,1.19-3.08,1.78-6.29,3.2-9.25.12-.47-.24-.83,0-1.19,1.07-1.42,1.42-3.2,2.37-4.51,1.78-2.49,4.03-4.39,6.52-5.93,1.9-.24,3.79-1.42,5.81-.59.59.24,1.3.36,1.9.36,1.66,0,3.08.71,4.27,1.78,1.19,1.07,2.37,2.25,3.2,3.79.12.24.36.24.47,0,.24-1.19.36-2.37.71-3.56.12-.47.24-1.07.47-1.54.24-.59,3.2-1.3,3.91-.83.36.12.71.47.71.95-.12.59-.59,1.07-.12,1.54-.71,2.02-.36,3.91-.36,5.81,0,1.54.12,3.08-.36,4.51-.36.83,0,1.78,0,2.73-.12.83.47,1.54,0,2.49-.47.83.47,1.66.47,2.61,0,1.3,0,2.61-.12,3.91,0,.47,0,.83.24,1.19.12.24.12.71,0,.95-.83,1.3-2.85,1.9-4.15,1.3l-.36-.47c-.36-.71-.47-1.42-.36-2.25.12-2.02-.47-3.91-.59-5.93-.36-1.78-.95-3.2-1.19-5.1-.36-2.96-2.25-5.69-3.56-8.18-.59-1.19-2.25-1.54-3.32-.59-1.3,1.19-2.61,2.25-3.08,4.03l-2.13,6.52c-.12.24-.24.36-.24.59-.24,2.61-.59,5.22-1.19,7.83.36,1.19.24,2.49,0,3.68-.24,1.3-.12,2.49-.12,3.79v3.68c0,1.3.12,2.73.12,4.03,0,3.44-.59,5.57-.47,9.01,0,2.73.47,6.64.83,9.37.59,3.91.47,7.95,1.9,11.74-.24,1.9,1.07,3.32,1.78,4.86.47,1.19,1.3,2.25,2.49,2.96,1.78.95,3.44.83,4.62-.59.95-1.3,1.66-2.61,2.13-4.03,1.07-2.73,1.78-5.34,2.49-8.18l.36-2.85.24-2.02c.12-.95.59-1.3,1.78-1.42h2.02c.71.12.95.59.83,1.3-.24.59-.12,1.66-.36,2.25-.12.59-.47,1.07-.47,1.54.24,2.37-.71,4.39-1.19,6.4-.47,1.78-1.07,3.32-1.66,4.98-1.3,3.32-3.79,5.69-6.64,7.83-1.07.83-2.49,1.19-3.91,1.54-.47.12-1.07.12-1.54.36-.71.24-1.3.12-2.02-.12Z"/>
    <path class="cls-1" d="M735.45,153.59h-6.64c-.59,0-1.19.12-1.66,0-.71-.36-1.42-.36-2.13-.12-.47.24-1.19.12-1.66.12-.71.12-1.54.36-2.13-.47-.71-.83-.59-1.78-.36-2.85.12-.24.47-.47.71-.47,1.42-.12,2.73-.12,4.03-.12.95,0,1.19-.24,1.19-1.19.59-5.46,0-5.57,0-11.03,0-2.49.59-8.54.12-12.81.47-2.85.47-5.69.36-8.54,0-.47,0-1.07-.24-1.54-.36-.83-.24-1.54.12-2.25.24-.47.24-1.07,0-1.66-.12-.47-.12-.83.24-1.19.59-.47.36-.71-.24-1.07-.24-.24-.36-.83-.36-1.19v-10.32c0-3.08,0-6.17-.12-9.37,0-.83.12-1.66-.36-2.49-.36-.71-.24-1.42,0-2.02.83-2.49.12-5.22.24-7.71,0-.36-.71-.71-.95-.59-.83.47-1.78-.36-2.61-.24-2.02.24-2.25,0-2.25-1.9,0-1.3.47-2.02,1.54-2.13,1.19-.12,2.25.47,3.32.12.47-.12,1.07,0,1.54.12.59.12,1.07.36,1.54.12.71-.36,1.3-.24,2.02-.12,1.54.47,5.45.47,7.11.24.83-.83,1.78.36,2.49-.24.71.36,1.54.36,2.25.36,1.78-.24,1.66,0,1.78,1.54,0,2.13-.12,2.13-1.78,2.13-.71-.12-1.19,0-1.9-.12-.12,0-.47.24-.47.36-.12,1.3-.12,2.61.12,3.91.36,3.44.71,7.23-.12,10.67,0,.24,0,.71.12.95.36.59-.24,1.19.12,1.78.47.71-.12,1.54-.24,2.25-.12.59.47,1.19,0,1.78-.12,2.02-.12,4.03-.24,6.05-.12,2.25-.47,2.85.36,2.85,1.19.12,4.39-.59,5.57-.12.83.24,2.25.12,3.2,0,.83-.12,1.54.36,2.25-.12.71-.59.24-1.66.36-2.61,0-2.85-.12-6.29,0-9.13,0-1.07,0-2.13.12-3.32.24-.95-.12-2.02-.12-3.08-.12-1.19,0-2.25,0-3.32l-.12-4.03v-3.32c0-1.3-.24-2.02-1.54-1.9-1.3.12-1.78-.36-2.02-1.42-.12-.36,0-.83,0-1.3,0-.36-.12-.59.47-.71.47-.12,1.07-.24,1.54-.24,1.3-.12,2.25.12,3.44,0,1.07-.12,10.43.59,11.5.24,1.07-.36,2.37-.24,3.68-.24.59,0,1.19.24,1.19,1.19,0,.12-.12.24-.12.36.12,2.02-.24,2.49-2.02,2.49-.95.12-2.02-.12-2.85.59-.36.24-.59.24-.71.83-.36,2.13-.24,3.56.12,6.4.12.83.24,1.78.24,2.61v8.66c0,.71,0,1.54-.24,2.25-.12.36-.12.83,0,1.19.47,5.69-.24,10.67.36,16.84,0,1.3.12,2.49,0,3.68,0,1.07.83,2.13.12,3.2.59,1.19.47,2.25-.12,3.44-.12.47.36,7.59.36,8.06-1.19,4.74-.36,8.78-.36,16.13,0,.83.36,1.19,1.19,1.19.95-.12,1.42-.12,2.25-.12.59-.12,1.19,0,1.54.12.83.47.47,1.42.59,2.13,0,1.07-.59,1.42-1.78,1.66-.59.12-6.52.24-7.23.24-2.85,0-6.76-.59-11.26,0-.59,0-.95-.36-1.07-.95,0-.36-.12-.71-.24-1.07-.24-1.07.36-1.9,1.42-2.02h1.07c.95,0,1.19-.24,1.07-1.19,0-1.07.24-2.13-.36-3.79.71-.95.12-1.9.12-2.85-.12-1.19.12-2.25-.24-3.44-.24-1.19,0-2.49,0-3.68v-3.68c0-.59.12-1.3.24-1.9.12-.47.36-.83.24-1.3-.47-2.02.12-4.15,0-6.17,0-2.02.12-4.03,0-5.93-.12-2.02-.71-3.32-.59-5.34.12-1.07-.24-1.3-1.3-.95-.83.24-1.54-.36-2.37-.36-2.37,0-5.1,0-7.47.12-.71,0-.95.36-.83,1.07,0,.24.24.47.12.59-.36,1.07-.36,2.25-.24,3.32.12.95,0,2.13.36,3.08.36,1.42-.59,2.73,0,4.15-.71,2.37-.24,4.74,0,7.11.24,2.73.47,5.45-.24,8.18-.12.47-.12.95,0,1.3.47,1.07.36,2.13.36,3.32,0,2.49,0,4.98.12,7.59,0,.47.36.71.83.71h1.3c1.54.24,2.49,2.02,1.66,3.56,0,.12-.24.36-.47.36-.59,0-1.07.12-1.66.12h-6.28v-.12Z"/>
  </g>
</svg>