<?xml version="1.0" encoding="UTF-8"?>
<svg id="Layer_1" data-name="Layer 1" xmlns="http://www.w3.org/2000/svg" viewBox="0 0 576.12 359.71">
  <defs>
    <style>
      .cls-1 {
        fill: none;
        stroke: #fff;
        stroke-miterlimit: 10;
        stroke-width: 13px;
      }

      .cls-2 {
        fill: #fff;
      }
    </style>
  </defs>
  <path class="cls-2" d="M33.77,274.99c0-3.78,1.19-6.63,3.57-8.54,2.38-1.91,5.27-2.86,8.67-2.86s6.29,1.01,8.77,3.02c2.48,2.01,3.72,4.79,3.72,8.33v1.04l-8.64,1.67v-2.71c0-1.01-.38-1.8-1.15-2.39-.76-.59-1.67-.88-2.71-.88-.97,0-1.81.29-2.52.86-.71.57-1.07,1.38-1.07,2.42s.41,1.94,1.22,2.79c.81.85,1.83,1.55,3.04,2.11,1.21.56,2.54,1.24,3.98,2.06,1.44.82,2.77,1.67,3.98,2.55,1.21.88,2.23,2.13,3.04,3.72.82,1.6,1.22,3.42,1.22,5.47,0,2.57-.63,4.76-1.9,6.58-1.27,1.82-2.83,3.12-4.68,3.9-1.86.78-3.9,1.17-6.12,1.17-3.37,0-6.28-.99-8.75-2.97-2.46-1.98-3.7-4.75-3.7-8.33v-.94l8.64-1.87v2.81c0,1.04.37,1.85,1.12,2.42.75.57,1.64.86,2.68.86s2.02-.29,2.84-.88c.81-.59,1.22-1.39,1.22-2.39,0-1.21-.3-2.28-.91-3.2-.61-.92-1.4-1.67-2.37-2.24-.97-.57-2.04-1.12-3.2-1.64-1.16-.52-2.33-1.09-3.51-1.72-1.18-.62-2.26-1.34-3.23-2.16-.97-.81-1.76-1.91-2.37-3.28-.61-1.37-.91-2.96-.91-4.76Z"/>
  <path class="cls-2" d="M78.85,264.16h8.64v40.6h-8.64l-6.82-17.91v17.91h-8.64v-40.6h8.64l6.82,17.91v-17.91Z"/>
  <path class="cls-2" d="M92.23,274.94c0-3.57,1.23-6.36,3.7-8.35,2.46-2,5.38-2.99,8.75-2.99s6.41,1.01,8.93,3.02c2.52,2.01,3.77,4.79,3.77,8.33v19.05c0,3.57-1.23,6.35-3.7,8.33-2.46,1.98-5.38,2.97-8.75,2.97s-6.41-1.01-8.93-3.02c-2.52-2.01-3.77-4.77-3.77-8.28v-19.05ZM100.87,293.99c0,1.01.41,1.8,1.22,2.39.82.59,1.76.88,2.84.88s1.93-.29,2.68-.86c.75-.57,1.12-1.38,1.12-2.42v-19.05c0-1.01-.41-1.8-1.22-2.39-.82-.59-1.76-.88-2.84-.88s-1.93.29-2.68.86c-.75.57-1.12,1.38-1.12,2.42v19.05Z"/>
  <path class="cls-2" d="M146.21,286.18l2.86-22.02h8.64l-6.4,40.6h-8.07l-3.96-14.52-3.96,14.52h-8.12l-6.35-40.6h8.59l2.92,22.02,3.23-13.12h7.34l3.28,13.12Z"/>
  <path class="cls-2" d="M161.72,304.77v-40.6h11.3c3.92,0,6.98,1.04,9.16,3.12,2.19,2.08,3.28,4.56,3.28,7.44,0,3.26-1.28,5.93-3.85,8.02,3.3,2.05,4.95,5.14,4.95,9.27v1.46c0,3.54-1.25,6.31-3.75,8.3-2.5,2-5.47,2.99-8.9,2.99h-12.18ZM170.36,272.18v6.92h2.45c1.25,0,2.24-.36,2.97-1.07.73-.71,1.09-1.54,1.09-2.47s-.34-1.73-1.02-2.39c-.68-.66-1.62-.99-2.84-.99h-2.66ZM170.36,296.7h3.54c1.08,0,2.01-.29,2.81-.86.8-.57,1.2-1.36,1.2-2.37v-3.02c0-1.04-.37-1.85-1.12-2.42-.75-.57-1.64-.86-2.68-.86h-3.75v9.53Z"/>
  <path class="cls-2" d="M190.25,274.94c0-3.57,1.23-6.36,3.7-8.35,2.46-2,5.38-2.99,8.75-2.99s6.41,1.01,8.93,3.02c2.52,2.01,3.77,4.79,3.77,8.33v19.05c0,3.57-1.23,6.35-3.7,8.33-2.46,1.98-5.38,2.97-8.75,2.97s-6.41-1.01-8.93-3.02c-2.52-2.01-3.77-4.77-3.77-8.28v-19.05ZM198.89,293.99c0,1.01.41,1.8,1.22,2.39.82.59,1.76.88,2.84.88s1.93-.29,2.68-.86c.75-.57,1.12-1.38,1.12-2.42v-19.05c0-1.01-.41-1.8-1.22-2.39-.82-.59-1.76-.88-2.84-.88s-1.93.29-2.68.86c-.75.57-1.12,1.38-1.12,2.42v19.05Z"/>
  <path class="cls-2" d="M227.05,264.16h8.12l9.06,40.6h-8.64l-.83-4.27h-7.29l-.83,4.27h-8.64l9.06-40.6ZM231.11,282.02l-2.03,10.36h4.06l-2.03-10.36Z"/>
  <path class="cls-2" d="M247.61,264.16h12.18c3.44,0,6.4,1,8.9,2.99,2.5,2,3.75,4.76,3.75,8.3v3.07c0,4.62-2,7.91-5.99,9.89l6.4,16.35h-9.27l-5.47-14.94h-1.87v14.94h-8.64v-40.6ZM256.25,272.18v9.63h3.75c1.04,0,1.93-.29,2.68-.86.75-.57,1.12-1.38,1.12-2.42v-3.07c0-1.01-.4-1.8-1.2-2.39-.8-.59-1.74-.88-2.81-.88h-3.54Z"/>
  <path class="cls-2" d="M277.02,264.16h12.18c3.44,0,6.4,1,8.9,2.99,2.5,2,3.75,4.76,3.75,8.3v18.01c0,3.57-1.23,6.35-3.7,8.33-2.46,1.98-5.38,2.97-8.75,2.97h-12.39v-40.6ZM285.67,296.7h3.75c1.04,0,1.93-.28,2.68-.83.75-.55,1.12-1.35,1.12-2.39v-18.01c0-1.01-.4-1.8-1.2-2.39-.8-.59-1.74-.88-2.81-.88h-3.54v24.52Z"/>
  <path class="cls-2" d="M355.26,264.16v40.6h-8.64v-19.73l-4.11,9.79h-6.51l-4.11-9.79v19.73h-8.64v-40.6h8.64l7.34,19.83,7.39-19.83h8.64Z"/>
  <path class="cls-2" d="M367.39,264.16h8.12l9.06,40.6h-8.64l-.83-4.27h-7.29l-.83,4.27h-8.64l9.06-40.6ZM371.45,282.02l-2.03,10.36h4.06l-2.03-10.36Z"/>
  <path class="cls-2" d="M400.08,283.32h12.39v10.67c0,3.57-1.23,6.35-3.7,8.33-2.46,1.98-5.38,2.97-8.75,2.97s-6.41-1.01-8.93-3.02c-2.52-2.01-3.77-4.77-3.77-8.28v-19.05c0-3.57,1.21-6.36,3.62-8.35,2.41-2,5.28-2.99,8.62-2.99s6.29,1.01,8.77,3.02c2.48,2.01,3.72,4.79,3.72,8.33v1.04l-8.64,1.67v-2.71c0-1.01-.38-1.8-1.14-2.39-.76-.59-1.67-.88-2.71-.88-.97,0-1.81.29-2.52.86-.71.57-1.07,1.38-1.07,2.42v19.05c0,1.01.41,1.8,1.22,2.39.82.59,1.76.88,2.84.88s1.93-.29,2.68-.86c.75-.57,1.12-1.38,1.12-2.42v-2.55h-3.75v-8.12Z"/>
  <path class="cls-2" d="M423.98,264.16h8.12l9.06,40.6h-8.64l-.83-4.27h-7.29l-.83,4.27h-8.64l9.06-40.6ZM428.04,282.02l-2.03,10.36h4.06l-2.03-10.36Z"/>
  <path class="cls-2" d="M444.49,264.16h20.93v8.07l-12.39,24.41h12.39v8.12h-21.45v-8.12l12.34-24.41h-11.82v-8.07Z"/>
  <path class="cls-2" d="M470.46,264.16h8.64v40.6h-8.64v-40.6Z"/>
  <path class="cls-2" d="M499.92,264.16h8.64v40.6h-8.64l-6.82-17.91v17.91h-8.64v-40.6h8.64l6.82,17.91v-17.91Z"/>
  <path class="cls-2" d="M534.85,264.16v8.07h-12.29v8.43h10.15v8.12h-10.15v7.86h12.29v8.12h-20.93v-40.6h20.93Z"/>
  <g>
    <path class="cls-2" d="M122.51,75.34l4.2,28.17c.44,2.96-1.59,5.72-4.54,6.18l-42.46,6.61c-3.09.48-5.14,3.47-4.48,6.53l2.52,11.61c.65,2.98,3.62,4.85,6.59,4.13l32.44-7.84c3.12-.75,6.21,1.34,6.66,4.52l2.8,19.73c.4,2.81-1.44,5.46-4.21,6.08l-31.84,7.03c-2.88.64-4.73,3.45-4.17,6.34l7.88,40.79c.57,2.92-1.33,5.76-4.25,6.36l-20.65,4.24c-2.95.61-5.83-1.3-6.43-4.25l-26.03-128.69c-.59-2.93,1.29-5.79,4.22-6.4l75.24-15.67c3.06-.64,6.03,1.43,6.49,4.52Z"/>
    <path class="cls-2" d="M153.3,115.59c3.11-.12,5.71,2.34,5.8,5.44.55,17.68,1.52,33.77,2.92,48.26,1.3,13.52,2.97,25.67,5.02,36.44.59,3.12,3.62,5.14,6.72,4.45l27.73-6.21c3.34-.75,6.56,1.65,6.8,5.07l1.33,19.24c.2,2.97-1.95,5.57-4.9,5.93l-55.97,6.8c-3.05.37-5.82-1.78-6.22-4.83l-14.75-113.49c-.42-3.26,2.04-6.17,5.32-6.3l20.2-.81Z"/>
    <path class="cls-2" d="M169.87,142.26l-8.61-59.22c-.71-4.87,2.68-9.4,7.56-10.08l15.2-2.14c5.13-.72,9.79,3.08,10.11,8.25l4.13,65.74c.12,1.85.8,3.65,1.98,5.07,7.81,9.41,13.99,13.92,18.54,13.55,8.83-.73,11.56-21.49,8.17-62.28-.69-8.26-1.64-17.47-2.87-27.64-.62-5.12,3.23-9.72,8.38-9.97l14.53-.72c4.78-.24,8.88,3.36,9.3,8.12,5.04,56.45,4.28,93.5-2.26,111.14-5.02,13.59-13.87,20.92-26.55,21.97-4.58.38-9.62-.05-15.14-1.29-23.23-5.19-37.39-25.35-42.49-60.5Z"/>
    <path class="cls-2" d="M283.49,75.51c31.01,3.26,52.93,14.36,65.76,33.29,4.98,7.33,7.07,14.8,6.27,22.41-1.42,13.45-11.8,27.28-31.16,41.47-1.77,1.3-2.24,3.75-1.01,5.57l37.84,55.87c1.95,2.87-.38,6.71-3.83,6.3l-32.57-3.79c-1.18-.14-2.23-.78-2.9-1.76l-20.89-31.04c-2.12-3.14-7-1.93-7.4,1.84l-2.36,22.45c-.25,2.33-2.41,3.97-4.72,3.57l-27.27-4.65c-2.13-.36-3.6-2.33-3.35-4.48l17.11-144.03c.26-2.15,2.16-3.74,4.31-3.58s4.11.34,6.14.55ZM324.08,129.72c.83-7.91-4.37-13.81-15.62-17.71-2.46-.85-5.09.84-5.36,3.43l-2.83,26.93c-.33,3.12,2.84,5.37,5.72,4.12,11.4-4.96,17.44-10.55,18.09-16.77Z"/>
    <path class="cls-2" d="M366.09,66.09c31.12-1.95,54.58,5.34,70.39,21.86,6.13,6.4,9.44,13.41,9.92,21.05.86,13.65-7.27,29.2-24.37,46.66-1.22,1.24-1.27,3.23-.06,4.49l48.44,50.69c1.9,1.99.59,5.3-2.16,5.44l-34.95,1.8c-.94.05-1.85-.32-2.5-1l-27.62-29.07c-2.07-2.18-5.74-.58-5.55,2.42l1.61,25.72c.12,1.86-1.36,3.43-3.22,3.42l-29.35-.04c-1.72,0-3.13-1.35-3.21-3.06l-7.21-146.45c-.08-1.72,1.2-3.21,2.91-3.38,2.33-.22,4.64-.41,6.94-.55ZM415.15,112.78c-.51-8.17-6.98-13.18-19.39-15.02-2.04-.3-3.87,1.34-3.74,3.39l1.85,29.47c.15,2.43,2.88,3.83,4.95,2.53,11.3-7.09,16.74-13.89,16.33-20.37Z"/>
    <path class="cls-2" d="M472.84,62.92l9.64,35.73c1.04,3.84,6.31,4.27,7.95.64l14.8-32.72c.81-1.78,2.73-2.78,4.65-2.42l23.38,4.47c2.83.54,4.31,3.69,2.91,6.21l-38.51,69.81c-.27.49-.44,1.03-.5,1.59l-5.3,48.67c-.26,2.41-2.49,4.11-4.88,3.72l-23.78-3.82c-2.39-.38-3.97-2.68-3.48-5.05l9.41-45.18c.18-.86.09-1.74-.26-2.55l-30.98-71.56c-1.09-2.51.46-5.38,3.15-5.86l26.97-4.75c2.16-.38,4.25.95,4.83,3.07Z"/>
  </g>
  <rect class="cls-1" x="13.8" y="19.96" width="545.56" height="319.78" rx="23.62" ry="23.62"/>
</svg>