<?xml version="1.0" encoding="UTF-8"?>
<svg id="Layer_1" data-name="Layer 1" xmlns="http://www.w3.org/2000/svg" viewBox="0 0 576.12 359.71">
  <defs>
    <style>
      .cls-1 {
        fill: none;
        stroke: #262262;
        stroke-miterlimit: 10;
        stroke-width: 13px;
      }

      .cls-2, .cls-3 {
        fill: #262262;
      }

      .cls-3 {
        font-family: fFinish, 'f Finish';
        font-size: 53.3px;
      }
    </style>
  </defs>
  <text class="cls-3" transform="translate(31.95 304.77)"><tspan x="0" y="0">Snowboard Magazine</tspan></text>
  <g>
    <path class="cls-2" d="M122.51,75.34l4.2,28.17c.44,2.96-1.59,5.72-4.54,6.18l-42.46,6.61c-3.09.48-5.14,3.47-4.48,6.53l2.52,11.61c.65,2.98,3.62,4.85,6.59,4.13l32.44-7.84c3.12-.75,6.21,1.34,6.66,4.52l2.8,19.73c.4,2.81-1.44,5.46-4.21,6.08l-31.84,7.03c-2.88.64-4.73,3.45-4.17,6.34l7.88,40.79c.57,2.92-1.33,5.76-4.25,6.36l-20.65,4.24c-2.95.61-5.83-1.3-6.43-4.25l-26.03-128.69c-.59-2.93,1.29-5.79,4.22-6.4l75.24-15.67c3.06-.64,6.03,1.43,6.49,4.52Z"/>
    <path class="cls-2" d="M153.3,115.59c3.11-.12,5.71,2.34,5.8,5.44.55,17.68,1.52,33.77,2.92,48.26,1.3,13.52,2.97,25.67,5.02,36.44.59,3.12,3.62,5.14,6.72,4.45l27.73-6.21c3.34-.75,6.56,1.65,6.8,5.07l1.33,19.24c.2,2.97-1.95,5.57-4.9,5.93l-55.97,6.8c-3.05.37-5.82-1.78-6.22-4.83l-14.75-113.49c-.42-3.26,2.04-6.17,5.32-6.3l20.2-.81Z"/>
    <path class="cls-2" d="M169.87,142.26l-8.61-59.22c-.71-4.87,2.68-9.4,7.56-10.08l15.2-2.14c5.13-.72,9.79,3.08,10.11,8.25l4.13,65.74c.12,1.85.8,3.65,1.98,5.07,7.81,9.41,13.99,13.92,18.54,13.55,8.83-.73,11.56-21.49,8.17-62.28-.69-8.26-1.64-17.47-2.87-27.64-.62-5.12,3.23-9.72,8.38-9.97l14.53-.72c4.78-.24,8.88,3.36,9.3,8.12,5.04,56.45,4.28,93.5-2.26,111.14-5.02,13.59-13.87,20.92-26.55,21.97-4.58.38-9.62-.05-15.14-1.29-23.23-5.19-37.39-25.35-42.49-60.5Z"/>
    <path class="cls-2" d="M283.49,75.51c31.01,3.26,52.93,14.36,65.76,33.29,4.98,7.33,7.07,14.8,6.27,22.41-1.42,13.45-11.8,27.28-31.16,41.47-1.77,1.3-2.24,3.75-1.01,5.57l37.84,55.87c1.95,2.87-.38,6.71-3.83,6.3l-32.57-3.79c-1.18-.14-2.23-.78-2.9-1.76l-20.89-31.04c-2.12-3.14-7-1.93-7.4,1.84l-2.36,22.45c-.25,2.33-2.41,3.97-4.72,3.57l-27.27-4.65c-2.13-.36-3.6-2.33-3.35-4.48l17.11-144.03c.26-2.15,2.16-3.74,4.31-3.58s4.11.34,6.14.55ZM324.08,129.72c.83-7.91-4.37-13.81-15.62-17.71-2.46-.85-5.09.84-5.36,3.43l-2.83,26.93c-.33,3.12,2.84,5.37,5.72,4.12,11.4-4.96,17.44-10.55,18.09-16.77Z"/>
    <path class="cls-2" d="M366.09,66.09c31.12-1.95,54.58,5.34,70.39,21.86,6.13,6.4,9.44,13.41,9.92,21.05.86,13.65-7.27,29.2-24.37,46.66-1.22,1.24-1.27,3.23-.06,4.49l48.44,50.69c1.9,1.99.59,5.3-2.16,5.44l-34.95,1.8c-.94.05-1.85-.32-2.5-1l-27.62-29.07c-2.07-2.18-5.74-.58-5.55,2.42l1.61,25.72c.12,1.86-1.36,3.43-3.22,3.42l-29.35-.04c-1.72,0-3.13-1.35-3.21-3.06l-7.21-146.45c-.08-1.72,1.2-3.21,2.91-3.38,2.33-.22,4.64-.41,6.94-.55ZM415.15,112.78c-.51-8.17-6.98-13.18-19.39-15.02-2.04-.3-3.87,1.34-3.74,3.39l1.85,29.47c.15,2.43,2.88,3.83,4.95,2.53,11.3-7.09,16.74-13.89,16.33-20.37Z"/>
    <path class="cls-2" d="M472.84,62.92l9.64,35.73c1.04,3.84,6.31,4.27,7.95.64l14.8-32.72c.81-1.78,2.73-2.78,4.65-2.42l23.38,4.47c2.83.54,4.31,3.69,2.91,6.21l-38.51,69.81c-.27.49-.44,1.03-.5,1.59l-5.3,48.67c-.26,2.41-2.49,4.11-4.88,3.72l-23.78-3.82c-2.39-.38-3.97-2.68-3.48-5.05l9.41-45.18c.18-.86.09-1.74-.26-2.55l-30.98-71.56c-1.09-2.51.46-5.38,3.15-5.86l26.97-4.75c2.16-.38,4.25.95,4.83,3.07Z"/>
  </g>
  <rect class="cls-1" x="13.8" y="19.96" width="545.56" height="319.78" rx="23.62" ry="23.62"/>
</svg>