<?xml version="1.0" encoding="UTF-8"?>
<svg id="Layer_1" data-name="Layer 1" xmlns="http://www.w3.org/2000/svg" viewBox="0 0 792 406.89">
  <defs>
    <style>
      .cls-1 {
        fill: #39b54a;
      }

      .cls-1, .cls-2, .cls-3, .cls-4, .cls-5, .cls-6, .cls-7 {
        stroke-width: 0px;
      }

      .cls-8 {
        letter-spacing: 0em;
      }

      .cls-2 {
        fill: #ef4136;
      }

      .cls-9 {
        fill: #be1e2d;
        font-family: Farmhand-Regular, Farmhand;
        font-size: 99.79px;
        stroke: #231f20;
        stroke-miterlimit: 10;
      }

      .cls-3 {
        fill: #fbb040;
      }

      .cls-4 {
        fill: #fff200;
      }

      .cls-10 {
        letter-spacing: 0em;
      }

      .cls-5 {
        fill: #000;
      }

      .cls-6 {
        fill: #231f20;
      }

      .cls-7 {
        fill: #f9ed32;
      }

      .cls-11 {
        letter-spacing: 0em;
      }

      .cls-12 {
        letter-spacing: 0em;
      }

      .cls-13 {
        letter-spacing: 0em;
      }
    </style>
  </defs>
  <path class="cls-5" d="M365.57,213.42c.37,3.92.68,7.14.98,10.37,16.44-.76,16.87-.43,22.16,15.73.84,2.58,2.06,5.03,3.34,8.11-4.08.92-7.96,1.8-11.91,2.7,11.58,19.28,6.59,34.94-13.44,45.87-37.33,20.37-77.91,32.67-117.26,48.02-19.93,7.77-40.16,14.76-60.27,22.04-19.64,7.11-36.28,2.26-51.8-11.33-5.41-4.73-13.46-8.05-20.66-8.83-24.32-2.66-38.88-17.93-38.71-42.58,0-1.05-.13-2.11-.23-3.66-3.67-.36-7.11-.7-9.62-.95,0-7.1-.3-13.76.17-20.37.15-2.13,1.89-4.71,3.68-6.04,3.12-2.31,7.21-2.83,6.93-8.68-.07-1.54,7.09-3.42,12.76-5.97-3.81-1.98-6.3-3.56-9-4.63-14.45-5.73-17.91-11.36-18.1-26.79-.29-23.56,12.05-39.43,32.61-46.76,35.36-12.6,71.22-24.22,107.62-33.26,25.39-6.31,51.92-8.95,78.12-10.83,31.22-2.24,59.71,5.94,80.39,31.47,5.04,6.23,8.76,14.02,11.27,21.68,3.83,11.69,1.07,17.56-9.04,24.69ZM134.75,261.29c10.7,12.28,16.96,14.02,31.23,9.27,5.73-1.91,11.4-3.99,17.16-5.82,53-16.83,106.06-33.5,158.98-50.58,7.74-2.5,15.18-6.42,22.07-10.77,2.41-1.52,4.72-7.26,3.68-9.48-6.05-12.85-11.97-25.86-24.14-34.76-19.84-14.5-42.51-19.07-65.74-15.54-37.89,5.76-75.64,12.95-112.96,21.66-22.82,5.33-45.45,12.98-66.84,22.54-24.72,11.06-27.32,23.91-25.29,46.22.59,6.47,4.12,10.53,11.82,10.9,5.13.24,10.33,2.73,15.15,4.96,6.67,3.09,13.08,9.71,19.48,9.58,6.53-.14,8.59,3.28,12.19,6.1.57.45,1.27.73,2.08,1.17.37-1.79.69-3.34,1.13-5.46ZM166.47,339.87c-4.08-6.75-4.87-6.82-11.23-4.74-3.19,1.04-6.82,1.55-10.14,1.21-8.63-.87-18.48,1.97-24.72-7.3-.45-.67-2.06-.56-3.12-.81-10.23-2.41-11.06-4.02-7.2-14.04-7.85-8.65-14.8-11.45-24.13-9.7-.2,15.39,6.68,27.32,19.08,32.5,8.04,3.36,18-.66,25.2,7.13,2.52,2.73,8.07,2.51,11.03,5.04,14.92,12.71,30.61,16.64,49.55,8.81,21.26-8.79,43.36-15.54,64.78-23.99,35.17-13.89,70.1-28.36,105.07-42.74,10.74-4.41,17.07-12.21,17.38-24.57-1.29,0-2.15-.23-2.83.03-25.55,9.86-50.94,20.12-76.68,29.46-8.9,3.23-13.31,9.52-17.58,16.98-1.45,2.53-4.64,5.06-7.44,5.64-13.2,2.76-27.92,1.31-36.95,14.61-.2.29-1,.18-2.12.35-3.62-7.67-9.96-6.07-16.6-4.39-6.89,1.75-13.86,3.39-20.9,4.3-5.28.68-10.72.13-16.09.13-.07-.91-.15-1.82-.22-2.73,2.93-1.55,5.86-3.1,8.79-4.65q-17.17,1.83-22.93,13.47ZM123.31,276.01c.68,12.32,7.45,20.55,20.57,25.19,21.14,7.46,42.72,6.08,64.27,2.54,19.67-3.23,38.35-9.37,54.69-21.28,11.4-8.31,15.78-19.94,15.76-33.76-7.58,13.45-19.31,22.06-33.05,27.33-13.5,5.18-27.42,10.32-41.61,12.43-27.74,4.12-56.45,10.45-80.63-12.45ZM200.21,319.23c.7.59,1.4,1.19,2.09,1.78,5.34-6,10.55-13.47,17.43-2.17.25.42,1.55.2,2.35.28,4.15.43,8.3.86,12.56,1.3,3.48-11.84,5.93-12.81,16.9-6.33,1.32.78,3.52,2.04,4.25,1.54,7.46-5.16,20.93.16,22.43-13.9-.36-2.64-1.31-8.11-.21-8.56,11.01-4.5,8.49-13.42,7.68-22.26-3.61,8.97-5.86,19.06-18.56,18.95,2.08,2.92,3.84,5.39,5.59,7.85-.35.7-.71,1.4-1.06,2.1-7.02-1.13-14.05-2.26-20.5-3.3-.69,3.84-1.14,6.34-1.6,8.84-2.48-.59-4.96-1.18-7.44-1.76-1.49-.35-3.15-1.3-4.44-.93-11.02,3.14-22.07,6.28-32.88,10.06-2.04.71-3.09,4.28-4.6,6.52ZM293.89,253.29c0,.67-.01,1.34-.02,2.01h31.03c.09.61.17,1.22.26,1.83-10.64,1.15-21.27,2.3-32.98,3.57,14.68,7.95,31.57,4.9,43.21-6.33,4.25-4.1,9.23-7.59,14.32-10.62,7.69-4.59,11.69-12.34,9.46-21.61-4.19,10.71-12.24,15.86-21.91,19.19-2.8.96-6.07,2.14-7.84,4.27-5.85,7.07-13.87,7.12-21.78,7.64-4.57.3-9.17.06-13.76.06ZM363.43,266.24c2.86-4.01,6.36-6.67,6.32-9.26-.19-12.01,1.66-14.44,15-14.43-6.74-2.81-.45-16.12-13.05-12.2,1.1,1.95,2.16,3.82,2.72,4.81-5.42,3.2-10.24,6.04-14.85,8.76,1.94,1.37,3.96,2.81,5.98,4.25.11.92.23,1.84.34,2.76-15.47.79-28.93,5.24-37.54,19.1,2.8.64,5.87,1.34,8.94,2.03,1.43-2.59,2.18-5.17,3.87-6.66,1.82-1.6,5.24-1.59,6.74-3.33,7.21-8.35,9.04-8.32,15.52,4.17ZM119.96,322.84c2.4,1.35,6.03,3.82,10.01,5.44,2.21.9,5,.58,7.52.49,3.89-.14,7.76-.54,13.26-.96,1.26-1.6,3.34-5.84,6.73-8.1,3.2-2.13,9.68,1.83,11.14-8.02-8.65,2.39-16.5,3.85-23.8,6.71-16.03,6.28-19.34,4.22-19.03-13.12,0-.36-.57-.72-1.27-1.56-2.26,1.69-4.54,3.4-6.82,5.11.75.18,1.5.35,2.25.53v13.48ZM100.7,269.88c-5.86,3.44-10.87,6.52-16.03,9.33-1.45.79-3.37,1.15-5.01,1.01-1.33-.12-2.57-1.29-3.85-1.99-.29,1.73-.89,3.47-.79,5.18.15,2.55.8,5.08.85,5.34,5.4,1.81,9.6,3.55,13.97,4.58,3.71.88,7.7,1.63,11.41,1.17,3.74-.47,7.29-2.5,10.89-3.84-.7-2.82-1.54-6.22-2.21-8.92-5.71,2.86-11.58,5.79-17.45,8.73-.82-.85-1.64-1.69-2.46-2.54,3.39-5.72,6.78-11.44,10.68-18.03ZM225.13,265.96c.27.86.54,1.72.8,2.57,9.04-1.64,18.98-.46,27.08-11.05-10.47,3.18-19.18,5.83-27.89,8.47Z"/>
  <path class="cls-3" d="M134.75,261.29c-.44,2.12-.76,3.67-1.13,5.46-.8-.45-1.5-.73-2.08-1.17-3.6-2.82-5.66-6.24-12.19-6.1-6.41.14-12.81-6.49-19.48-9.58-4.82-2.23-10.02-4.72-15.15-4.96-7.7-.36-11.23-4.43-11.82-10.9-2.03-22.31.57-35.16,25.29-46.22,21.39-9.57,44.02-17.22,66.84-22.54,37.32-8.71,75.07-15.9,112.96-21.66,23.23-3.53,45.91,1.04,65.74,15.54,12.17,8.89,18.08,21.9,24.14,34.76,1.04,2.21-1.28,7.96-3.68,9.48-6.89,4.35-14.33,8.27-22.07,10.77-52.92,17.08-105.98,33.75-158.98,50.58-5.75,1.83-11.43,3.91-17.16,5.82-14.27,4.75-20.53,3.01-31.23-9.27ZM154.37,248.8c-5.87-16.34-13.88-31.25-27.37-41.99-7.02-5.59-15.85-9.64-24.51-12.22-9.03-2.69-17.25,2.17-21.49,9.87,15.42-7.7,21.03-7.96,33.5-.28,4.85,2.99,9.76,6.45,13.39,10.76,9.11,10.83,17.51,22.27,26.49,33.85ZM360.44,201.03c-.4-1.09-.79-2.17-1.19-3.26-29.05,10.79-58.09,21.57-87.14,32.36.31.85.62,1.7.93,2.55,29.13-10.55,58.26-21.11,87.39-31.66ZM338.42,162.34c.36-.84.72-1.67,1.08-2.51-9.58-3.83-19.17-7.65-28.75-11.48l-.73,1.84c9.47,4.05,18.94,8.1,28.41,12.15Z"/>
  <path class="cls-3" d="M166.47,339.87q5.76-11.64,22.93-13.47c-2.93,1.55-5.86,3.1-8.79,4.65.07.91.15,1.82.22,2.73,5.37,0,10.81.55,16.09-.13,7.04-.91,14.01-2.55,20.9-4.3,6.63-1.69,12.98-3.29,16.6,4.39,1.12-.17,1.92-.05,2.12-.35,9.03-13.3,23.75-11.86,36.95-14.61,2.8-.58,5.99-3.11,7.44-5.64,4.27-7.46,8.68-13.75,17.58-16.98,25.74-9.33,51.13-19.6,76.68-29.46.67-.26,1.53-.03,2.83-.03-.31,12.36-6.65,20.16-17.38,24.57-34.97,14.38-69.9,28.86-105.07,42.74-21.41,8.46-43.52,15.2-64.78,23.99-18.93,7.83-34.63,3.9-49.55-8.81-2.97-2.53-8.51-2.3-11.03-5.04-7.19-7.8-17.16-3.77-25.2-7.13-12.4-5.18-19.28-17.11-19.08-32.5,9.32-1.74,16.28,1.05,24.13,9.7-3.86,10.02-3.04,11.63,7.2,14.04,1.07.25,2.67.14,3.12.81,6.25,9.27,16.1,6.43,24.72,7.3,3.32.34,6.95-.17,10.14-1.21,6.36-2.08,7.15-2.01,11.23,4.74ZM172.53,334.14c-2.03,8.75,3.56,18.88-7.03,24.51,10-4.56,12.98-15.27,7.03-24.51Z"/>
  <path class="cls-2" d="M123.31,276.01c24.18,22.9,52.89,16.57,80.63,12.45,14.19-2.11,28.11-7.26,41.61-12.43,13.74-5.27,25.47-13.88,33.05-27.33.02,13.81-4.36,25.45-15.76,33.76-16.34,11.91-35.03,18.04-54.69,21.28-21.54,3.54-43.13,4.93-64.27-2.54-13.12-4.63-19.89-12.87-20.57-25.19Z"/>
  <path class="cls-1" d="M200.21,319.23c1.51-2.25,2.56-5.81,4.6-6.52,10.81-3.78,21.86-6.91,32.88-10.06,1.29-.37,2.95.58,4.44.93,2.48.58,4.96,1.17,7.44,1.76.45-2.5.9-5,1.6-8.84,6.45,1.04,13.48,2.17,20.5,3.3.35-.7.71-1.4,1.06-2.1-1.75-2.46-3.51-4.92-5.59-7.85,12.7.11,14.94-9.98,18.56-18.95.8,8.84,3.33,17.76-7.68,22.26-1.1.45-.15,5.93.21,8.56-1.49,14.06-14.97,8.74-22.43,13.9-.73.5-2.93-.76-4.25-1.54-10.97-6.48-13.43-5.51-16.9,6.33-4.26-.44-8.41-.87-12.56-1.3-.81-.08-2.1.14-2.35-.28-6.88-11.3-12.08-3.83-17.43,2.17-.7-.59-1.4-1.19-2.09-1.78Z"/>
  <path class="cls-2" d="M293.89,253.29c4.59,0,9.19.25,13.76-.06,7.9-.53,15.92-.57,21.78-7.64,1.77-2.14,5.04-3.31,7.84-4.27,9.67-3.33,17.73-8.48,21.91-19.19,2.23,9.28-1.77,17.03-9.46,21.61-5.09,3.03-10.07,6.52-14.32,10.62-11.64,11.22-28.53,14.28-43.21,6.33,11.71-1.27,22.35-2.42,32.98-3.57-.09-.61-.17-1.22-.26-1.83h-31.03c0-.67.01-1.34.02-2.01Z"/>
  <path class="cls-1" d="M363.43,266.24c-6.48-12.49-8.31-12.53-15.52-4.17-1.5,1.74-4.92,1.72-6.74,3.33-1.69,1.49-2.44,4.07-3.87,6.66-3.06-.7-6.14-1.4-8.94-2.03,8.6-13.86,22.07-18.3,37.54-19.1-.11-.92-.23-1.84-.34-2.76-2.02-1.44-4.05-2.87-5.98-4.25,4.61-2.72,9.43-5.56,14.85-8.76-.56-.99-1.62-2.86-2.72-4.81,12.61-3.92,6.31,9.38,13.05,12.2-13.33,0-15.19,2.42-15,14.43.04,2.6-3.46,5.25-6.32,9.26Z"/>
  <path class="cls-1" d="M119.96,322.84v-13.48c-.75-.18-1.5-.35-2.25-.53,2.28-1.71,4.56-3.42,6.82-5.11.7.83,1.28,1.2,1.27,1.56-.31,17.34,3,19.4,19.03,13.12,7.3-2.86,15.15-4.33,23.8-6.71-1.47,9.85-7.95,5.89-11.14,8.02-3.39,2.26-5.47,6.5-6.73,8.1-5.5.42-9.38.82-13.26.96-2.52.09-5.31.42-7.52-.49-3.98-1.63-7.61-4.1-10.01-5.44Z"/>
  <path class="cls-1" d="M100.7,269.88c-3.91,6.6-7.3,12.31-10.68,18.03.82.85,1.64,1.69,2.46,2.54,5.87-2.94,11.74-5.87,17.45-8.73.67,2.7,1.51,6.1,2.21,8.92-3.61,1.34-7.15,3.37-10.89,3.84-3.71.46-7.7-.29-11.41-1.17-4.37-1.03-8.57-2.77-13.97-4.58-.05-.26-.7-2.79-.85-5.34-.1-1.7.5-3.45.79-5.18,1.28.7,2.52,1.87,3.85,1.99,1.64.14,3.56-.22,5.01-1.01,5.16-2.81,10.18-5.89,16.03-9.33Z"/>
  <path class="cls-7" d="M199.1,272.95c16.83-4.83,33.67-9.66,53.92-15.46-15.67,19.33-34.89,17.18-52.36,20.16-.52-1.57-1.04-3.13-1.56-4.7Z"/>
  <path class="cls-5" d="M154.37,248.8c-8.98-11.58-17.38-23.02-26.49-33.85-3.62-4.31-8.53-7.77-13.39-10.76-12.47-7.68-18.08-7.42-33.5.28,4.24-7.7,12.46-12.56,21.49-9.87,8.66,2.58,17.49,6.63,24.51,12.22,13.49,10.74,21.5,25.65,27.37,41.99Z"/>
  <path class="cls-5" d="M360.44,201.03c-29.13,10.55-58.26,21.11-87.39,31.66-.31-.85-.62-1.7-.93-2.55,29.05-10.79,58.09-21.57,87.14-32.36.4,1.09.79,2.17,1.19,3.26Z"/>
  <path class="cls-5" d="M338.42,162.34c-9.47-4.05-18.94-8.1-28.41-12.15l.73-1.84c9.58,3.83,19.17,7.65,28.75,11.48-.36.84-.72,1.67-1.08,2.51Z"/>
  <path class="cls-5" d="M183.49,341.52c5.95,9.24,2.97,19.95-7.03,24.51,10.58-5.63,5-15.76,7.03-24.51Z"/>
  <g>
    <path class="cls-4" d="M160.72,170.91c-18.09-28.27-34.56-57.58-49.3-87.73,28.37,15.83,53.56,37.36,73.61,62.92-.76-37.71-.37-75.45,1.16-113.14,13.86,30.86,24.75,62.95,35.63,94.99,19.04-28.15,38.49-56.74,64.95-78.06-17.95,34.28-28.08,72.64-29.39,111.32-32.58,5.07-65.17,10.03-97.78,14.89"/>
    <path class="cls-6" d="M162.88,169.64c-14.1-22.05-27.22-44.71-39.3-67.92-3.42-6.56-6.75-13.17-10-19.81l-3.42,3.42c22.03,12.32,42.08,28.01,59.32,46.45,4.83,5.16,9.42,10.53,13.79,16.08,1.38,1.75,4.31.25,4.27-1.77-.59-29.41-.49-58.83.31-88.23.23-8.31.51-16.61.85-24.91l-4.66,1.26c10.73,23.92,19.66,48.58,28.2,73.35,2.41,7.01,4.8,14.03,7.18,21.05.71,2.09,3.34,2.41,4.57.6,14.76-21.82,29.65-43.81,48.19-62.66,5.18-5.26,10.63-10.26,16.37-14.9l-3.93-3.03c-7.06,13.52-12.96,27.66-17.58,42.2-4.62,14.55-7.94,29.5-9.97,44.63-1.15,8.54-1.87,17.13-2.17,25.75l1.84-2.41c-25.38,3.95-50.76,7.83-76.16,11.65-7.21,1.08-14.42,2.16-21.63,3.24-1.34.2-2.07,1.89-1.75,3.08.39,1.43,1.73,1.95,3.08,1.75,25.4-3.78,50.79-7.63,76.17-11.54,7.2-1.11,14.41-2.23,21.61-3.35,1.1-.17,1.8-1.4,1.84-2.41,1.04-29.86,7.35-59.46,18.48-87.19,3.13-7.8,6.67-15.42,10.57-22.87,1.37-2.62-1.76-4.78-3.93-3.03-20.78,16.78-37.29,38.04-52.51,59.82-4.34,6.21-8.58,12.47-12.83,18.75l4.57.6c-8.52-25.09-17.04-50.2-27.01-74.77-2.84-6.99-5.79-13.93-8.87-20.82-1.08-2.41-4.57-1-4.66,1.26-1.19,29.39-1.69,58.81-1.49,88.22.06,8.31.17,16.62.34,24.92,1.42-.59,2.85-1.18,4.27-1.77-15.77-20.06-34.65-37.61-55.74-51.96-5.96-4.05-12.09-7.84-18.38-11.35-2.28-1.27-4.49,1.22-3.42,3.42,11.5,23.5,24.04,46.5,37.58,68.89,3.83,6.33,7.74,12.61,11.72,18.84,1.73,2.7,6.06.2,4.32-2.52h0Z"/>
  </g>
  <path class="cls-7" d="M337.09,228.78c-11.13,3.12-22.27,6.23-35.66,9.98,15.5,5.44,25.56-2.43,36.42-6.8-.25-1.06-.5-2.12-.75-3.18Z"/>
  <g>
    <path class="cls-2" d="M289.8,285.76c3.41-.71,7.12.81,9.07,2.95,1.95,2.14,2.53,4.77,2.95,7.31,1.4,8.38,1.69,16.91,4.75,25.06,3.06,8.15,9.43,16.12,19.79,20.04,10.36,3.92,25.05,2.43,31.2-4.75,1.07-1.25,1.87-2.65,2.08-4.11.58-4.05-3.31-7.65-6.9-10.8-9.95-8.71-19.55-18.01-24.01-28.83-1.63-3.94-2.57-8.09-5.32-11.7-2.75-3.61-7.93-6.66-13.61-6.29"/>
    <path class="cls-6" d="M290.13,286.96c3.26-.59,6.89.9,8.67,3.71s1.99,6.57,2.43,9.8c.98,7.26,1.65,14.68,4.37,21.54,4.33,10.91,13.77,19.39,25.39,21.71,5.5,1.1,11.34,1.05,16.77-.39,4.94-1.3,10.62-4.16,12.64-9.19,2.6-6.48-4.65-11.67-8.78-15.35-5.21-4.64-10.31-9.47-14.65-14.95-2.3-2.9-4.37-6.02-6.02-9.34s-2.62-7.05-4.22-10.47c-3.07-6.54-9.55-11.04-16.92-10.67-1.6.08-1.61,2.58,0,2.5,6.56-.33,12.05,3.63,14.76,9.43,1.37,2.93,2.22,6.08,3.55,9.03,1.27,2.83,2.86,5.5,4.64,8.03,3.78,5.37,8.36,10.13,13.15,14.6,2.47,2.31,5.05,4.5,7.54,6.78,2.09,1.91,4.83,4.4,5,7.43.15,2.76-2.25,5.17-4.35,6.63s-4.3,2.37-6.67,3.02c-5.31,1.47-11.09,1.52-16.46.33-11.21-2.49-20.02-11-23.67-21.77-2.6-7.67-2.94-15.8-4.28-23.72-.56-3.31-1.57-6.62-4.29-8.8-2.6-2.09-5.99-2.93-9.27-2.34-1.58.29-.91,2.7.66,2.41h0Z"/>
  </g>
  <text class="cls-9" transform="translate(421.29 193.85)"><tspan x="0" y="0">Su</tspan><tspan class="cls-8" x="71.94" y="0">p</tspan><tspan class="cls-11" x="109.27" y="0">reme</tspan><tspan class="cls-12" x="0" y="119.74">S</tspan><tspan x="33.43" y="119.74">an</tspan><tspan class="cls-13" x="106.37" y="119.74">d</tspan><tspan x="146.68" y="119.74">w</tspan><tspan class="cls-13" x="197.27" y="119.74">i</tspan><tspan class="cls-10" x="220.52" y="119.74">ch</tspan></text>
</svg>